<mxfile host="app.diagrams.net" modified="2024-12-02T13:05:02.787Z" agent="Mozilla/5.0 (Windows NT 10.0; Win64; x64) AppleWebKit/537.36 (KHTML, like Gecko) Chrome/131.0.0.0 Safari/537.36" etag="Rk19SalE8E-fLJoBSs7i" version="24.3.1" type="device">
  <diagram id="R2lEEEUBdFMjLlhIrx00" name="Page-1">
    <mxGraphModel dx="4567" dy="2260" grid="1" gridSize="10" guides="1" tooltips="1" connect="1" arrows="1" fold="1" page="1" pageScale="1" pageWidth="850" pageHeight="1100" math="0" shadow="0" extFonts="Permanent Marker^https://fonts.googleapis.com/css?family=Permanent+Marker">
      <root>
        <mxCell id="0" />
        <mxCell id="1" parent="0" />
        <mxCell id="ZskD0779En3dFi18m6Pj-6" value="PinCode" style="ellipse;whiteSpace=wrap;html=1;" vertex="1" parent="1">
          <mxGeometry x="230" y="-80" width="60" height="40" as="geometry" />
        </mxCell>
        <mxCell id="ZskD0779En3dFi18m6Pj-11" value="has many" style="rhombus;whiteSpace=wrap;html=1;" vertex="1" parent="1">
          <mxGeometry x="345" y="-25" width="80" height="80" as="geometry" />
        </mxCell>
        <mxCell id="ZskD0779En3dFi18m6Pj-12" value="Cinemas" style="whiteSpace=wrap;html=1;" vertex="1" parent="1">
          <mxGeometry x="560" y="-7.5" width="90" height="45" as="geometry" />
        </mxCell>
        <mxCell id="ZskD0779En3dFi18m6Pj-14" value="" style="endArrow=none;html=1;rounded=0;exitX=1;exitY=0.5;exitDx=0;exitDy=0;entryX=0;entryY=0.5;entryDx=0;entryDy=0;" edge="1" parent="1" source="ZskD0779En3dFi18m6Pj-1" target="ZskD0779En3dFi18m6Pj-11">
          <mxGeometry width="50" height="50" relative="1" as="geometry">
            <mxPoint x="400" y="30" as="sourcePoint" />
            <mxPoint x="450" y="-20" as="targetPoint" />
          </mxGeometry>
        </mxCell>
        <mxCell id="ZskD0779En3dFi18m6Pj-15" value="" style="endArrow=none;html=1;rounded=0;entryX=0;entryY=0.5;entryDx=0;entryDy=0;exitX=1;exitY=0.5;exitDx=0;exitDy=0;" edge="1" parent="1" source="ZskD0779En3dFi18m6Pj-11" target="ZskD0779En3dFi18m6Pj-12">
          <mxGeometry width="50" height="50" relative="1" as="geometry">
            <mxPoint x="400" y="30" as="sourcePoint" />
            <mxPoint x="450" y="-20" as="targetPoint" />
          </mxGeometry>
        </mxCell>
        <mxCell id="ZskD0779En3dFi18m6Pj-16" value="1" style="text;html=1;align=center;verticalAlign=middle;resizable=0;points=[];autosize=1;strokeColor=none;fillColor=none;" vertex="1" parent="1">
          <mxGeometry x="305" y="-22" width="30" height="30" as="geometry" />
        </mxCell>
        <mxCell id="ZskD0779En3dFi18m6Pj-17" value="N" style="text;html=1;align=center;verticalAlign=middle;resizable=0;points=[];autosize=1;strokeColor=none;fillColor=none;" vertex="1" parent="1">
          <mxGeometry x="425" y="-22" width="30" height="30" as="geometry" />
        </mxCell>
        <mxCell id="ZskD0779En3dFi18m6Pj-22" value="CityID" style="ellipse;whiteSpace=wrap;html=1;" vertex="1" parent="1">
          <mxGeometry x="700" y="-90" width="60" height="40" as="geometry" />
        </mxCell>
        <mxCell id="ZskD0779En3dFi18m6Pj-23" value="Total&lt;div&gt;CinemaHalls&lt;/div&gt;" style="ellipse;whiteSpace=wrap;html=1;" vertex="1" parent="1">
          <mxGeometry x="600" y="-110" width="80" height="60" as="geometry" />
        </mxCell>
        <mxCell id="ZskD0779En3dFi18m6Pj-24" value="Name" style="ellipse;whiteSpace=wrap;html=1;" vertex="1" parent="1">
          <mxGeometry x="530" y="-110" width="50" height="40" as="geometry" />
        </mxCell>
        <mxCell id="ZskD0779En3dFi18m6Pj-25" value="&lt;u&gt;ID&lt;/u&gt;" style="ellipse;whiteSpace=wrap;html=1;" vertex="1" parent="1">
          <mxGeometry x="455" y="-90" width="50" height="40" as="geometry" />
        </mxCell>
        <mxCell id="ZskD0779En3dFi18m6Pj-26" value="" style="endArrow=none;html=1;rounded=0;entryX=0.5;entryY=1;entryDx=0;entryDy=0;exitX=0;exitY=0;exitDx=0;exitDy=0;" edge="1" parent="1" source="ZskD0779En3dFi18m6Pj-12" target="ZskD0779En3dFi18m6Pj-25">
          <mxGeometry width="50" height="50" relative="1" as="geometry">
            <mxPoint x="400" y="30" as="sourcePoint" />
            <mxPoint x="450" y="-20" as="targetPoint" />
          </mxGeometry>
        </mxCell>
        <mxCell id="ZskD0779En3dFi18m6Pj-27" value="" style="endArrow=none;html=1;rounded=0;entryX=0.5;entryY=1;entryDx=0;entryDy=0;exitX=0.182;exitY=0.016;exitDx=0;exitDy=0;exitPerimeter=0;" edge="1" parent="1" source="ZskD0779En3dFi18m6Pj-12" target="ZskD0779En3dFi18m6Pj-24">
          <mxGeometry width="50" height="50" relative="1" as="geometry">
            <mxPoint x="410" y="40" as="sourcePoint" />
            <mxPoint x="460" y="-10" as="targetPoint" />
          </mxGeometry>
        </mxCell>
        <mxCell id="ZskD0779En3dFi18m6Pj-28" value="" style="endArrow=none;html=1;rounded=0;entryX=0.5;entryY=1;entryDx=0;entryDy=0;exitX=0.5;exitY=0;exitDx=0;exitDy=0;" edge="1" parent="1" source="ZskD0779En3dFi18m6Pj-12" target="ZskD0779En3dFi18m6Pj-23">
          <mxGeometry width="50" height="50" relative="1" as="geometry">
            <mxPoint x="420" y="50" as="sourcePoint" />
            <mxPoint x="470" as="targetPoint" />
          </mxGeometry>
        </mxCell>
        <mxCell id="ZskD0779En3dFi18m6Pj-29" value="" style="endArrow=none;html=1;rounded=0;entryX=0.287;entryY=1.06;entryDx=0;entryDy=0;entryPerimeter=0;exitX=1;exitY=0;exitDx=0;exitDy=0;" edge="1" parent="1" source="ZskD0779En3dFi18m6Pj-12" target="ZskD0779En3dFi18m6Pj-22">
          <mxGeometry width="50" height="50" relative="1" as="geometry">
            <mxPoint x="430" y="60" as="sourcePoint" />
            <mxPoint x="480" y="10" as="targetPoint" />
          </mxGeometry>
        </mxCell>
        <mxCell id="ZskD0779En3dFi18m6Pj-30" value="CinemaHall" style="rounded=0;whiteSpace=wrap;html=1;" vertex="1" parent="1">
          <mxGeometry x="900" y="-8.75" width="90" height="47.5" as="geometry" />
        </mxCell>
        <mxCell id="ZskD0779En3dFi18m6Pj-31" value="CinemaID" style="ellipse;whiteSpace=wrap;html=1;" vertex="1" parent="1">
          <mxGeometry x="1080" y="-98.75" width="80" height="50" as="geometry" />
        </mxCell>
        <mxCell id="ZskD0779En3dFi18m6Pj-32" value="TotalSeats" style="ellipse;whiteSpace=wrap;html=1;" vertex="1" parent="1">
          <mxGeometry x="980" y="-101.25" width="80" height="52.5" as="geometry" />
        </mxCell>
        <mxCell id="ZskD0779En3dFi18m6Pj-33" value="Name" style="ellipse;whiteSpace=wrap;html=1;" vertex="1" parent="1">
          <mxGeometry x="900" y="-96.25" width="60" height="37.5" as="geometry" />
        </mxCell>
        <mxCell id="ZskD0779En3dFi18m6Pj-34" value="&lt;u&gt;ID&lt;/u&gt;" style="ellipse;whiteSpace=wrap;html=1;" vertex="1" parent="1">
          <mxGeometry x="830" y="-85" width="40" height="30" as="geometry" />
        </mxCell>
        <mxCell id="ZskD0779En3dFi18m6Pj-35" value="FK" style="text;html=1;align=center;verticalAlign=middle;resizable=0;points=[];autosize=1;strokeColor=none;fillColor=none;" vertex="1" parent="1">
          <mxGeometry x="730" y="-120" width="40" height="30" as="geometry" />
        </mxCell>
        <mxCell id="ZskD0779En3dFi18m6Pj-38" value="" style="endArrow=none;html=1;rounded=0;entryX=1;entryY=1;entryDx=0;entryDy=0;exitX=0;exitY=0;exitDx=0;exitDy=0;" edge="1" parent="1" source="ZskD0779En3dFi18m6Pj-30" target="ZskD0779En3dFi18m6Pj-34">
          <mxGeometry width="50" height="50" relative="1" as="geometry">
            <mxPoint x="700" y="160" as="sourcePoint" />
            <mxPoint x="750" y="110" as="targetPoint" />
          </mxGeometry>
        </mxCell>
        <mxCell id="ZskD0779En3dFi18m6Pj-39" value="" style="endArrow=none;html=1;rounded=0;entryX=0.5;entryY=1;entryDx=0;entryDy=0;exitX=0.333;exitY=0;exitDx=0;exitDy=0;exitPerimeter=0;" edge="1" parent="1" source="ZskD0779En3dFi18m6Pj-30" target="ZskD0779En3dFi18m6Pj-33">
          <mxGeometry width="50" height="50" relative="1" as="geometry">
            <mxPoint x="710" y="170" as="sourcePoint" />
            <mxPoint x="760" y="120" as="targetPoint" />
          </mxGeometry>
        </mxCell>
        <mxCell id="ZskD0779En3dFi18m6Pj-40" value="" style="endArrow=none;html=1;rounded=0;entryX=0.5;entryY=1;entryDx=0;entryDy=0;exitX=0.5;exitY=0;exitDx=0;exitDy=0;" edge="1" parent="1" source="ZskD0779En3dFi18m6Pj-30" target="ZskD0779En3dFi18m6Pj-32">
          <mxGeometry width="50" height="50" relative="1" as="geometry">
            <mxPoint x="720" y="180" as="sourcePoint" />
            <mxPoint x="770" y="130" as="targetPoint" />
          </mxGeometry>
        </mxCell>
        <mxCell id="ZskD0779En3dFi18m6Pj-41" value="" style="endArrow=none;html=1;rounded=0;entryX=0.045;entryY=0.72;entryDx=0;entryDy=0;entryPerimeter=0;exitX=1;exitY=0;exitDx=0;exitDy=0;" edge="1" parent="1" source="ZskD0779En3dFi18m6Pj-30" target="ZskD0779En3dFi18m6Pj-31">
          <mxGeometry width="50" height="50" relative="1" as="geometry">
            <mxPoint x="730" y="190" as="sourcePoint" />
            <mxPoint x="780" y="140" as="targetPoint" />
          </mxGeometry>
        </mxCell>
        <mxCell id="ZskD0779En3dFi18m6Pj-42" value="has many" style="rhombus;whiteSpace=wrap;html=1;" vertex="1" parent="1">
          <mxGeometry x="740" y="-17.5" width="70" height="65" as="geometry" />
        </mxCell>
        <mxCell id="ZskD0779En3dFi18m6Pj-43" value="" style="endArrow=none;html=1;rounded=0;entryX=0;entryY=0.5;entryDx=0;entryDy=0;exitX=1;exitY=0.5;exitDx=0;exitDy=0;" edge="1" parent="1" source="ZskD0779En3dFi18m6Pj-12" target="ZskD0779En3dFi18m6Pj-42">
          <mxGeometry width="50" height="50" relative="1" as="geometry">
            <mxPoint x="700" y="160" as="sourcePoint" />
            <mxPoint x="750" y="110" as="targetPoint" />
          </mxGeometry>
        </mxCell>
        <mxCell id="ZskD0779En3dFi18m6Pj-44" value="" style="endArrow=none;html=1;rounded=0;entryX=0;entryY=0.5;entryDx=0;entryDy=0;exitX=1;exitY=0.5;exitDx=0;exitDy=0;" edge="1" parent="1" source="ZskD0779En3dFi18m6Pj-42" target="ZskD0779En3dFi18m6Pj-30">
          <mxGeometry width="50" height="50" relative="1" as="geometry">
            <mxPoint x="710" y="170" as="sourcePoint" />
            <mxPoint x="760" y="120" as="targetPoint" />
          </mxGeometry>
        </mxCell>
        <mxCell id="ZskD0779En3dFi18m6Pj-45" value="1" style="text;html=1;align=center;verticalAlign=middle;resizable=0;points=[];autosize=1;strokeColor=none;fillColor=none;" vertex="1" parent="1">
          <mxGeometry x="685" y="-22" width="30" height="30" as="geometry" />
        </mxCell>
        <mxCell id="ZskD0779En3dFi18m6Pj-46" value="N" style="text;html=1;align=center;verticalAlign=middle;resizable=0;points=[];autosize=1;strokeColor=none;fillColor=none;" vertex="1" parent="1">
          <mxGeometry x="835" y="-22" width="30" height="30" as="geometry" />
        </mxCell>
        <mxCell id="ZskD0779En3dFi18m6Pj-47" value="fk" style="text;html=1;align=center;verticalAlign=middle;resizable=0;points=[];autosize=1;strokeColor=none;fillColor=none;" vertex="1" parent="1">
          <mxGeometry x="1130" y="-126.25" width="30" height="30" as="geometry" />
        </mxCell>
        <mxCell id="ZskD0779En3dFi18m6Pj-48" value="Cinema_seats" style="rounded=0;whiteSpace=wrap;html=1;" vertex="1" parent="1">
          <mxGeometry x="895" y="160" width="100" height="40" as="geometry" />
        </mxCell>
        <mxCell id="ZskD0779En3dFi18m6Pj-49" value="seatNo." style="ellipse;whiteSpace=wrap;html=1;" vertex="1" parent="1">
          <mxGeometry x="1060" y="80" width="60" height="37.5" as="geometry" />
        </mxCell>
        <mxCell id="ZskD0779En3dFi18m6Pj-50" value="type" style="ellipse;whiteSpace=wrap;html=1;" vertex="1" parent="1">
          <mxGeometry x="1115" y="117.5" width="60" height="37.5" as="geometry" />
        </mxCell>
        <mxCell id="ZskD0779En3dFi18m6Pj-51" value="Cinema&lt;div&gt;HallID&lt;/div&gt;" style="ellipse;whiteSpace=wrap;html=1;" vertex="1" parent="1">
          <mxGeometry x="1120" y="240" width="60" height="37.5" as="geometry" />
        </mxCell>
        <mxCell id="ZskD0779En3dFi18m6Pj-52" value="&lt;u style=&quot;&quot;&gt;ID&lt;/u&gt;" style="ellipse;whiteSpace=wrap;html=1;" vertex="1" parent="1">
          <mxGeometry x="1130" y="180" width="60" height="37.5" as="geometry" />
        </mxCell>
        <mxCell id="ZskD0779En3dFi18m6Pj-54" value="" style="endArrow=none;html=1;rounded=0;entryX=0;entryY=1;entryDx=0;entryDy=0;exitX=1;exitY=0;exitDx=0;exitDy=0;" edge="1" parent="1" source="ZskD0779En3dFi18m6Pj-48" target="ZskD0779En3dFi18m6Pj-49">
          <mxGeometry width="50" height="50" relative="1" as="geometry">
            <mxPoint x="700" y="160" as="sourcePoint" />
            <mxPoint x="750" y="110" as="targetPoint" />
          </mxGeometry>
        </mxCell>
        <mxCell id="ZskD0779En3dFi18m6Pj-55" value="" style="endArrow=none;html=1;rounded=0;entryX=0;entryY=1;entryDx=0;entryDy=0;exitX=1;exitY=0.25;exitDx=0;exitDy=0;" edge="1" parent="1" source="ZskD0779En3dFi18m6Pj-48" target="ZskD0779En3dFi18m6Pj-50">
          <mxGeometry width="50" height="50" relative="1" as="geometry">
            <mxPoint x="710" y="170" as="sourcePoint" />
            <mxPoint x="760" y="120" as="targetPoint" />
          </mxGeometry>
        </mxCell>
        <mxCell id="ZskD0779En3dFi18m6Pj-56" value="" style="endArrow=none;html=1;rounded=0;entryX=0;entryY=0.5;entryDx=0;entryDy=0;exitX=1;exitY=0.5;exitDx=0;exitDy=0;" edge="1" parent="1" source="ZskD0779En3dFi18m6Pj-48" target="ZskD0779En3dFi18m6Pj-52">
          <mxGeometry width="50" height="50" relative="1" as="geometry">
            <mxPoint x="720" y="180" as="sourcePoint" />
            <mxPoint x="770" y="130" as="targetPoint" />
          </mxGeometry>
        </mxCell>
        <mxCell id="ZskD0779En3dFi18m6Pj-57" value="" style="endArrow=none;html=1;rounded=0;entryX=0;entryY=0.267;entryDx=0;entryDy=0;entryPerimeter=0;exitX=1;exitY=1;exitDx=0;exitDy=0;" edge="1" parent="1" source="ZskD0779En3dFi18m6Pj-48" target="ZskD0779En3dFi18m6Pj-51">
          <mxGeometry width="50" height="50" relative="1" as="geometry">
            <mxPoint x="730" y="190" as="sourcePoint" />
            <mxPoint x="780" y="140" as="targetPoint" />
          </mxGeometry>
        </mxCell>
        <mxCell id="ZskD0779En3dFi18m6Pj-58" value="has many" style="rhombus;whiteSpace=wrap;html=1;" vertex="1" parent="1">
          <mxGeometry x="910" y="66.25" width="70" height="65" as="geometry" />
        </mxCell>
        <mxCell id="ZskD0779En3dFi18m6Pj-59" value="" style="endArrow=none;html=1;rounded=0;entryX=0.5;entryY=1;entryDx=0;entryDy=0;" edge="1" parent="1" source="ZskD0779En3dFi18m6Pj-58" target="ZskD0779En3dFi18m6Pj-30">
          <mxGeometry width="50" height="50" relative="1" as="geometry">
            <mxPoint x="700" y="160" as="sourcePoint" />
            <mxPoint x="750" y="110" as="targetPoint" />
          </mxGeometry>
        </mxCell>
        <mxCell id="ZskD0779En3dFi18m6Pj-61" value="" style="endArrow=none;html=1;rounded=0;entryX=0.5;entryY=1;entryDx=0;entryDy=0;exitX=0.5;exitY=0;exitDx=0;exitDy=0;" edge="1" parent="1" source="ZskD0779En3dFi18m6Pj-48" target="ZskD0779En3dFi18m6Pj-58">
          <mxGeometry width="50" height="50" relative="1" as="geometry">
            <mxPoint x="700" y="160" as="sourcePoint" />
            <mxPoint x="750" y="110" as="targetPoint" />
          </mxGeometry>
        </mxCell>
        <mxCell id="ZskD0779En3dFi18m6Pj-62" value="1" style="text;html=1;align=center;verticalAlign=middle;resizable=0;points=[];autosize=1;strokeColor=none;fillColor=none;" vertex="1" parent="1">
          <mxGeometry x="945" y="38" width="30" height="30" as="geometry" />
        </mxCell>
        <mxCell id="ZskD0779En3dFi18m6Pj-63" value="N" style="text;html=1;align=center;verticalAlign=middle;resizable=0;points=[];autosize=1;strokeColor=none;fillColor=none;" vertex="1" parent="1">
          <mxGeometry x="950" y="121.25" width="30" height="30" as="geometry" />
        </mxCell>
        <mxCell id="ZskD0779En3dFi18m6Pj-67" value="" style="group" vertex="1" connectable="0" parent="1">
          <mxGeometry x="860" y="350" width="120" height="60" as="geometry" />
        </mxCell>
        <mxCell id="ZskD0779En3dFi18m6Pj-65" value="" style="rounded=0;whiteSpace=wrap;html=1;" vertex="1" parent="ZskD0779En3dFi18m6Pj-67">
          <mxGeometry width="120" height="60" as="geometry" />
        </mxCell>
        <mxCell id="ZskD0779En3dFi18m6Pj-66" value="Show_seats" style="rounded=0;whiteSpace=wrap;html=1;" vertex="1" parent="ZskD0779En3dFi18m6Pj-67">
          <mxGeometry x="10" y="8.75" width="100" height="41.25" as="geometry" />
        </mxCell>
        <mxCell id="ZskD0779En3dFi18m6Pj-68" value="&lt;u&gt;show&lt;/u&gt;&lt;div&gt;&lt;u&gt;seatID&lt;/u&gt;&lt;/div&gt;" style="ellipse;whiteSpace=wrap;html=1;" vertex="1" parent="1">
          <mxGeometry x="770" y="470" width="60" height="37.5" as="geometry" />
        </mxCell>
        <mxCell id="ZskD0779En3dFi18m6Pj-69" value="Price" style="ellipse;whiteSpace=wrap;html=1;" vertex="1" parent="1">
          <mxGeometry x="1080" y="385" width="60" height="37.5" as="geometry" />
        </mxCell>
        <mxCell id="ZskD0779En3dFi18m6Pj-70" value="Status" style="ellipse;whiteSpace=wrap;html=1;" vertex="1" parent="1">
          <mxGeometry x="1060" y="312.5" width="60" height="37.5" as="geometry" />
        </mxCell>
        <mxCell id="ZskD0779En3dFi18m6Pj-71" value="Cinema&lt;div&gt;SeatID&lt;/div&gt;" style="ellipse;whiteSpace=wrap;html=1;" vertex="1" parent="1">
          <mxGeometry x="1050" y="460" width="60" height="37.5" as="geometry" />
        </mxCell>
        <mxCell id="ZskD0779En3dFi18m6Pj-72" value="BookingID" style="ellipse;whiteSpace=wrap;html=1;" vertex="1" parent="1">
          <mxGeometry x="850" y="510" width="60" height="37.5" as="geometry" />
        </mxCell>
        <mxCell id="ZskD0779En3dFi18m6Pj-73" value="ShowID" style="ellipse;whiteSpace=wrap;html=1;" vertex="1" parent="1">
          <mxGeometry x="945" y="490" width="60" height="35" as="geometry" />
        </mxCell>
        <mxCell id="ZskD0779En3dFi18m6Pj-74" value="fk" style="text;html=1;align=center;verticalAlign=middle;resizable=0;points=[];autosize=1;strokeColor=none;fillColor=none;" vertex="1" parent="1">
          <mxGeometry x="1175" y="238" width="30" height="30" as="geometry" />
        </mxCell>
        <mxCell id="ZskD0779En3dFi18m6Pj-75" value="has many" style="rhombus;whiteSpace=wrap;html=1;" vertex="1" parent="1">
          <mxGeometry x="890" y="250" width="70" height="65" as="geometry" />
        </mxCell>
        <mxCell id="ZskD0779En3dFi18m6Pj-76" value="" style="endArrow=none;html=1;rounded=0;entryX=0.5;entryY=1;entryDx=0;entryDy=0;exitX=0.5;exitY=0;exitDx=0;exitDy=0;" edge="1" parent="1" source="ZskD0779En3dFi18m6Pj-75" target="ZskD0779En3dFi18m6Pj-48">
          <mxGeometry width="50" height="50" relative="1" as="geometry">
            <mxPoint x="700" y="160" as="sourcePoint" />
            <mxPoint x="750" y="110" as="targetPoint" />
          </mxGeometry>
        </mxCell>
        <mxCell id="ZskD0779En3dFi18m6Pj-77" value="" style="endArrow=none;html=1;rounded=0;entryX=0.5;entryY=1;entryDx=0;entryDy=0;exitX=0.5;exitY=0;exitDx=0;exitDy=0;" edge="1" parent="1" source="ZskD0779En3dFi18m6Pj-65" target="ZskD0779En3dFi18m6Pj-75">
          <mxGeometry width="50" height="50" relative="1" as="geometry">
            <mxPoint x="710" y="170" as="sourcePoint" />
            <mxPoint x="760" y="120" as="targetPoint" />
          </mxGeometry>
        </mxCell>
        <mxCell id="ZskD0779En3dFi18m6Pj-78" value="1" style="text;html=1;align=center;verticalAlign=middle;resizable=0;points=[];autosize=1;strokeColor=none;fillColor=none;" vertex="1" parent="1">
          <mxGeometry x="935" y="218" width="30" height="30" as="geometry" />
        </mxCell>
        <mxCell id="ZskD0779En3dFi18m6Pj-79" value="N" style="text;html=1;align=center;verticalAlign=middle;resizable=0;points=[];autosize=1;strokeColor=none;fillColor=none;" vertex="1" parent="1">
          <mxGeometry x="930" y="315" width="30" height="30" as="geometry" />
        </mxCell>
        <mxCell id="ZskD0779En3dFi18m6Pj-83" value="" style="endArrow=none;html=1;rounded=0;entryX=0;entryY=0.5;entryDx=0;entryDy=0;exitX=1;exitY=0;exitDx=0;exitDy=0;" edge="1" parent="1" source="ZskD0779En3dFi18m6Pj-65" target="ZskD0779En3dFi18m6Pj-70">
          <mxGeometry width="50" height="50" relative="1" as="geometry">
            <mxPoint x="690" y="280" as="sourcePoint" />
            <mxPoint x="740" y="230" as="targetPoint" />
          </mxGeometry>
        </mxCell>
        <mxCell id="ZskD0779En3dFi18m6Pj-84" value="" style="endArrow=none;html=1;rounded=0;entryX=0;entryY=0.5;entryDx=0;entryDy=0;exitX=1;exitY=0.5;exitDx=0;exitDy=0;" edge="1" parent="1" source="ZskD0779En3dFi18m6Pj-65" target="ZskD0779En3dFi18m6Pj-69">
          <mxGeometry width="50" height="50" relative="1" as="geometry">
            <mxPoint x="990" y="360" as="sourcePoint" />
            <mxPoint x="1070" y="341" as="targetPoint" />
          </mxGeometry>
        </mxCell>
        <mxCell id="ZskD0779En3dFi18m6Pj-85" value="" style="endArrow=none;html=1;rounded=0;entryX=0;entryY=0;entryDx=0;entryDy=0;exitX=1;exitY=1;exitDx=0;exitDy=0;" edge="1" parent="1" source="ZskD0779En3dFi18m6Pj-65" target="ZskD0779En3dFi18m6Pj-71">
          <mxGeometry width="50" height="50" relative="1" as="geometry">
            <mxPoint x="1000" y="370" as="sourcePoint" />
            <mxPoint x="1080" y="351" as="targetPoint" />
          </mxGeometry>
        </mxCell>
        <mxCell id="ZskD0779En3dFi18m6Pj-86" value="" style="endArrow=none;html=1;rounded=0;entryX=0.5;entryY=0;entryDx=0;entryDy=0;exitX=0.75;exitY=1;exitDx=0;exitDy=0;" edge="1" parent="1" source="ZskD0779En3dFi18m6Pj-65" target="ZskD0779En3dFi18m6Pj-73">
          <mxGeometry width="50" height="50" relative="1" as="geometry">
            <mxPoint x="1010" y="380" as="sourcePoint" />
            <mxPoint x="1090" y="361" as="targetPoint" />
          </mxGeometry>
        </mxCell>
        <mxCell id="ZskD0779En3dFi18m6Pj-87" value="" style="endArrow=none;html=1;rounded=0;entryX=0.5;entryY=0;entryDx=0;entryDy=0;exitX=0.333;exitY=1;exitDx=0;exitDy=0;exitPerimeter=0;" edge="1" parent="1" source="ZskD0779En3dFi18m6Pj-65" target="ZskD0779En3dFi18m6Pj-72">
          <mxGeometry width="50" height="50" relative="1" as="geometry">
            <mxPoint x="960" y="420" as="sourcePoint" />
            <mxPoint x="985" y="500" as="targetPoint" />
          </mxGeometry>
        </mxCell>
        <mxCell id="ZskD0779En3dFi18m6Pj-88" value="" style="endArrow=none;html=1;rounded=0;entryX=1;entryY=0;entryDx=0;entryDy=0;exitX=0;exitY=1;exitDx=0;exitDy=0;" edge="1" parent="1" source="ZskD0779En3dFi18m6Pj-65" target="ZskD0779En3dFi18m6Pj-68">
          <mxGeometry width="50" height="50" relative="1" as="geometry">
            <mxPoint x="970" y="430" as="sourcePoint" />
            <mxPoint x="995" y="510" as="targetPoint" />
          </mxGeometry>
        </mxCell>
        <mxCell id="ZskD0779En3dFi18m6Pj-89" value="fk" style="text;html=1;align=center;verticalAlign=middle;resizable=0;points=[];autosize=1;strokeColor=none;fillColor=none;" vertex="1" parent="1">
          <mxGeometry x="1110" y="460" width="30" height="30" as="geometry" />
        </mxCell>
        <mxCell id="ZskD0779En3dFi18m6Pj-90" value="fk" style="text;html=1;align=center;verticalAlign=middle;resizable=0;points=[];autosize=1;strokeColor=none;fillColor=none;" vertex="1" parent="1">
          <mxGeometry x="1005" y="497.5" width="30" height="30" as="geometry" />
        </mxCell>
        <mxCell id="ZskD0779En3dFi18m6Pj-91" value="fk" style="text;html=1;align=center;verticalAlign=middle;resizable=0;points=[];autosize=1;strokeColor=none;fillColor=none;" vertex="1" parent="1">
          <mxGeometry x="910" y="525" width="30" height="30" as="geometry" />
        </mxCell>
        <mxCell id="ZskD0779En3dFi18m6Pj-92" value="fk" style="text;html=1;align=center;verticalAlign=middle;resizable=0;points=[];autosize=1;strokeColor=none;fillColor=none;" vertex="1" parent="1">
          <mxGeometry x="790" y="513.75" width="30" height="30" as="geometry" />
        </mxCell>
        <mxCell id="ZskD0779En3dFi18m6Pj-93" value="eventShow" style="rounded=0;whiteSpace=wrap;html=1;" vertex="1" parent="1">
          <mxGeometry x="275" y="452.5" width="110" height="52.5" as="geometry" />
        </mxCell>
        <mxCell id="ZskD0779En3dFi18m6Pj-100" value="MovieID" style="ellipse;whiteSpace=wrap;html=1;" vertex="1" parent="1">
          <mxGeometry x="190" y="315" width="60" height="37.5" as="geometry" />
        </mxCell>
        <mxCell id="ZskD0779En3dFi18m6Pj-101" value="CinemaHall&lt;div&gt;ID&lt;/div&gt;" style="ellipse;whiteSpace=wrap;html=1;" vertex="1" parent="1">
          <mxGeometry x="320" y="229.25" width="75" height="47.5" as="geometry" />
        </mxCell>
        <mxCell id="ZskD0779En3dFi18m6Pj-102" value="endtime" style="ellipse;whiteSpace=wrap;html=1;" vertex="1" parent="1">
          <mxGeometry x="100" y="517.5" width="60" height="37.5" as="geometry" />
        </mxCell>
        <mxCell id="ZskD0779En3dFi18m6Pj-103" value="Date" style="ellipse;whiteSpace=wrap;html=1;" vertex="1" parent="1">
          <mxGeometry x="275" y="311.25" width="60" height="37.5" as="geometry" />
        </mxCell>
        <mxCell id="ZskD0779En3dFi18m6Pj-104" value="startime" style="ellipse;whiteSpace=wrap;html=1;" vertex="1" parent="1">
          <mxGeometry x="90" y="452.5" width="60" height="37.5" as="geometry" />
        </mxCell>
        <mxCell id="ZskD0779En3dFi18m6Pj-105" value="&lt;u style=&quot;&quot;&gt;showID&lt;/u&gt;" style="ellipse;whiteSpace=wrap;html=1;" vertex="1" parent="1">
          <mxGeometry x="140" y="380" width="60" height="37.5" as="geometry" />
        </mxCell>
        <mxCell id="ZskD0779En3dFi18m6Pj-107" value="" style="endArrow=none;html=1;rounded=0;exitX=1.1;exitY=0.28;exitDx=0;exitDy=0;exitPerimeter=0;entryX=0;entryY=0.75;entryDx=0;entryDy=0;" edge="1" parent="1" source="ZskD0779En3dFi18m6Pj-102" target="ZskD0779En3dFi18m6Pj-93">
          <mxGeometry width="50" height="50" relative="1" as="geometry">
            <mxPoint x="690" y="280" as="sourcePoint" />
            <mxPoint x="740" y="230" as="targetPoint" />
          </mxGeometry>
        </mxCell>
        <mxCell id="ZskD0779En3dFi18m6Pj-108" value="" style="endArrow=none;html=1;rounded=0;exitX=1;exitY=0.5;exitDx=0;exitDy=0;entryX=0;entryY=0;entryDx=0;entryDy=0;" edge="1" parent="1" source="ZskD0779En3dFi18m6Pj-104" target="ZskD0779En3dFi18m6Pj-93">
          <mxGeometry width="50" height="50" relative="1" as="geometry">
            <mxPoint x="700" y="290" as="sourcePoint" />
            <mxPoint x="750" y="240" as="targetPoint" />
          </mxGeometry>
        </mxCell>
        <mxCell id="ZskD0779En3dFi18m6Pj-109" value="" style="endArrow=none;html=1;rounded=0;exitX=1;exitY=1;exitDx=0;exitDy=0;" edge="1" parent="1" source="ZskD0779En3dFi18m6Pj-105">
          <mxGeometry width="50" height="50" relative="1" as="geometry">
            <mxPoint x="160" y="481" as="sourcePoint" />
            <mxPoint x="270" y="480" as="targetPoint" />
          </mxGeometry>
        </mxCell>
        <mxCell id="ZskD0779En3dFi18m6Pj-110" value="" style="endArrow=none;html=1;rounded=0;exitX=0.5;exitY=1;exitDx=0;exitDy=0;" edge="1" parent="1" source="ZskD0779En3dFi18m6Pj-100">
          <mxGeometry width="50" height="50" relative="1" as="geometry">
            <mxPoint x="170" y="491" as="sourcePoint" />
            <mxPoint x="290" y="450" as="targetPoint" />
          </mxGeometry>
        </mxCell>
        <mxCell id="ZskD0779En3dFi18m6Pj-111" value="" style="endArrow=none;html=1;rounded=0;exitX=0.25;exitY=0;exitDx=0;exitDy=0;entryX=0.5;entryY=1;entryDx=0;entryDy=0;" edge="1" parent="1" source="ZskD0779En3dFi18m6Pj-93" target="ZskD0779En3dFi18m6Pj-103">
          <mxGeometry width="50" height="50" relative="1" as="geometry">
            <mxPoint x="180" y="501" as="sourcePoint" />
            <mxPoint x="305" y="483" as="targetPoint" />
          </mxGeometry>
        </mxCell>
        <mxCell id="ZskD0779En3dFi18m6Pj-112" value="" style="endArrow=none;html=1;rounded=0;exitX=0.5;exitY=0;exitDx=0;exitDy=0;entryX=0.5;entryY=1;entryDx=0;entryDy=0;" edge="1" parent="1" source="ZskD0779En3dFi18m6Pj-93" target="ZskD0779En3dFi18m6Pj-101">
          <mxGeometry width="50" height="50" relative="1" as="geometry">
            <mxPoint x="190" y="511" as="sourcePoint" />
            <mxPoint x="315" y="493" as="targetPoint" />
          </mxGeometry>
        </mxCell>
        <mxCell id="ZskD0779En3dFi18m6Pj-114" value="fk" style="text;html=1;align=center;verticalAlign=middle;resizable=0;points=[];autosize=1;strokeColor=none;fillColor=none;" vertex="1" parent="1">
          <mxGeometry x="335" y="188" width="30" height="30" as="geometry" />
        </mxCell>
        <mxCell id="ZskD0779En3dFi18m6Pj-115" value="fk" style="text;html=1;align=center;verticalAlign=middle;resizable=0;points=[];autosize=1;strokeColor=none;fillColor=none;" vertex="1" parent="1">
          <mxGeometry x="190" y="276.75" width="30" height="30" as="geometry" />
        </mxCell>
        <mxCell id="ZskD0779En3dFi18m6Pj-116" value="has many" style="rhombus;whiteSpace=wrap;html=1;rotation=-30;" vertex="1" parent="1">
          <mxGeometry x="660" y="168" width="80" height="80" as="geometry" />
        </mxCell>
        <mxCell id="ZskD0779En3dFi18m6Pj-117" value="has many" style="rhombus;whiteSpace=wrap;html=1;" vertex="1" parent="1">
          <mxGeometry x="640" y="350" width="80" height="80" as="geometry" />
        </mxCell>
        <mxCell id="ZskD0779En3dFi18m6Pj-118" value="" style="endArrow=none;html=1;rounded=0;entryX=0;entryY=0.5;entryDx=0;entryDy=0;" edge="1" parent="1" source="ZskD0779En3dFi18m6Pj-117" target="ZskD0779En3dFi18m6Pj-65">
          <mxGeometry width="50" height="50" relative="1" as="geometry">
            <mxPoint x="690" y="280" as="sourcePoint" />
            <mxPoint x="740" y="230" as="targetPoint" />
          </mxGeometry>
        </mxCell>
        <mxCell id="ZskD0779En3dFi18m6Pj-120" value="" style="endArrow=none;html=1;rounded=0;exitX=1;exitY=0.5;exitDx=0;exitDy=0;entryX=0;entryY=0.5;entryDx=0;entryDy=0;" edge="1" parent="1" source="ZskD0779En3dFi18m6Pj-93" target="ZskD0779En3dFi18m6Pj-117">
          <mxGeometry width="50" height="50" relative="1" as="geometry">
            <mxPoint x="690" y="280" as="sourcePoint" />
            <mxPoint x="740" y="230" as="targetPoint" />
          </mxGeometry>
        </mxCell>
        <mxCell id="ZskD0779En3dFi18m6Pj-121" value="1" style="text;html=1;align=center;verticalAlign=middle;resizable=0;points=[];autosize=1;strokeColor=none;fillColor=none;" vertex="1" parent="1">
          <mxGeometry x="495" y="398" width="30" height="30" as="geometry" />
        </mxCell>
        <mxCell id="ZskD0779En3dFi18m6Pj-122" value="N" style="text;html=1;align=center;verticalAlign=middle;resizable=0;points=[];autosize=1;strokeColor=none;fillColor=none;" vertex="1" parent="1">
          <mxGeometry x="770" y="350" width="30" height="30" as="geometry" />
        </mxCell>
        <mxCell id="ZskD0779En3dFi18m6Pj-123" value="" style="endArrow=none;html=1;rounded=0;entryX=0;entryY=1;entryDx=0;entryDy=0;exitX=1;exitY=0.5;exitDx=0;exitDy=0;" edge="1" parent="1" source="ZskD0779En3dFi18m6Pj-116" target="ZskD0779En3dFi18m6Pj-30">
          <mxGeometry width="50" height="50" relative="1" as="geometry">
            <mxPoint x="690" y="280" as="sourcePoint" />
            <mxPoint x="740" y="230" as="targetPoint" />
          </mxGeometry>
        </mxCell>
        <mxCell id="ZskD0779En3dFi18m6Pj-124" value="" style="endArrow=none;html=1;rounded=0;entryX=0;entryY=0.5;entryDx=0;entryDy=0;exitX=1;exitY=0;exitDx=0;exitDy=0;" edge="1" parent="1" source="ZskD0779En3dFi18m6Pj-93" target="ZskD0779En3dFi18m6Pj-116">
          <mxGeometry width="50" height="50" relative="1" as="geometry">
            <mxPoint x="690" y="280" as="sourcePoint" />
            <mxPoint x="740" y="230" as="targetPoint" />
          </mxGeometry>
        </mxCell>
        <mxCell id="ZskD0779En3dFi18m6Pj-125" value="1" style="text;html=1;align=center;verticalAlign=middle;resizable=0;points=[];autosize=1;strokeColor=none;fillColor=none;" vertex="1" parent="1">
          <mxGeometry x="765" y="108" width="30" height="30" as="geometry" />
        </mxCell>
        <mxCell id="ZskD0779En3dFi18m6Pj-126" value="N" style="text;html=1;align=center;verticalAlign=middle;resizable=0;points=[];autosize=1;strokeColor=none;fillColor=none;" vertex="1" parent="1">
          <mxGeometry x="515" y="288" width="30" height="30" as="geometry" />
        </mxCell>
        <mxCell id="ZskD0779En3dFi18m6Pj-127" value="Movie" style="rounded=0;whiteSpace=wrap;html=1;" vertex="1" parent="1">
          <mxGeometry x="260" y="690" width="120" height="50" as="geometry" />
        </mxCell>
        <mxCell id="ZskD0779En3dFi18m6Pj-128" value="shown in" style="rhombus;whiteSpace=wrap;html=1;" vertex="1" parent="1">
          <mxGeometry x="280" y="555" width="80" height="80" as="geometry" />
        </mxCell>
        <mxCell id="ZskD0779En3dFi18m6Pj-129" value="" style="endArrow=none;html=1;rounded=0;entryX=0.418;entryY=1.038;entryDx=0;entryDy=0;entryPerimeter=0;exitX=0.5;exitY=0;exitDx=0;exitDy=0;" edge="1" parent="1" source="ZskD0779En3dFi18m6Pj-128" target="ZskD0779En3dFi18m6Pj-93">
          <mxGeometry width="50" height="50" relative="1" as="geometry">
            <mxPoint x="690" y="570" as="sourcePoint" />
            <mxPoint x="740" y="520" as="targetPoint" />
          </mxGeometry>
        </mxCell>
        <mxCell id="ZskD0779En3dFi18m6Pj-131" value="" style="endArrow=none;html=1;rounded=0;exitX=0.5;exitY=0;exitDx=0;exitDy=0;entryX=0.5;entryY=1;entryDx=0;entryDy=0;" edge="1" parent="1" source="ZskD0779En3dFi18m6Pj-127" target="ZskD0779En3dFi18m6Pj-128">
          <mxGeometry width="50" height="50" relative="1" as="geometry">
            <mxPoint x="690" y="570" as="sourcePoint" />
            <mxPoint x="740" y="520" as="targetPoint" />
          </mxGeometry>
        </mxCell>
        <mxCell id="ZskD0779En3dFi18m6Pj-132" value="1" style="text;html=1;align=center;verticalAlign=middle;resizable=0;points=[];autosize=1;strokeColor=none;fillColor=none;" vertex="1" parent="1">
          <mxGeometry x="325" y="648" width="30" height="30" as="geometry" />
        </mxCell>
        <mxCell id="ZskD0779En3dFi18m6Pj-133" value="N" style="text;html=1;align=center;verticalAlign=middle;resizable=0;points=[];autosize=1;strokeColor=none;fillColor=none;" vertex="1" parent="1">
          <mxGeometry x="315" y="518" width="30" height="30" as="geometry" />
        </mxCell>
        <mxCell id="ZskD0779En3dFi18m6Pj-134" value="Descrip." style="ellipse;whiteSpace=wrap;html=1;" vertex="1" parent="1">
          <mxGeometry x="670" y="830" width="60" height="37.5" as="geometry" />
        </mxCell>
        <mxCell id="ZskD0779En3dFi18m6Pj-135" value="Genre" style="ellipse;whiteSpace=wrap;html=1;" vertex="1" parent="1">
          <mxGeometry x="80" y="840" width="60" height="37.5" as="geometry" />
        </mxCell>
        <mxCell id="ZskD0779En3dFi18m6Pj-136" value="Title" style="ellipse;whiteSpace=wrap;html=1;" vertex="1" parent="1">
          <mxGeometry x="580" y="830" width="60" height="37.5" as="geometry" />
        </mxCell>
        <mxCell id="ZskD0779En3dFi18m6Pj-137" value="Country" style="ellipse;whiteSpace=wrap;html=1;" vertex="1" parent="1">
          <mxGeometry x="160" y="840" width="60" height="37.5" as="geometry" />
        </mxCell>
        <mxCell id="ZskD0779En3dFi18m6Pj-138" value="release&lt;div&gt;Date&lt;/div&gt;" style="ellipse;whiteSpace=wrap;html=1;" vertex="1" parent="1">
          <mxGeometry x="240" y="840" width="60" height="37.5" as="geometry" />
        </mxCell>
        <mxCell id="ZskD0779En3dFi18m6Pj-139" value="Language" style="ellipse;whiteSpace=wrap;html=1;" vertex="1" parent="1">
          <mxGeometry x="320" y="837.5" width="60" height="37.5" as="geometry" />
        </mxCell>
        <mxCell id="ZskD0779En3dFi18m6Pj-140" value="Duration" style="ellipse;whiteSpace=wrap;html=1;" vertex="1" parent="1">
          <mxGeometry x="395" y="830" width="60" height="37.5" as="geometry" />
        </mxCell>
        <mxCell id="ZskD0779En3dFi18m6Pj-141" value="&lt;u&gt;ID&lt;/u&gt;" style="ellipse;whiteSpace=wrap;html=1;" vertex="1" parent="1">
          <mxGeometry x="495" y="830" width="60" height="37.5" as="geometry" />
        </mxCell>
        <mxCell id="ZskD0779En3dFi18m6Pj-142" value="" style="endArrow=none;html=1;rounded=0;exitX=0.5;exitY=0;exitDx=0;exitDy=0;entryX=0;entryY=1;entryDx=0;entryDy=0;" edge="1" parent="1" source="ZskD0779En3dFi18m6Pj-135" target="ZskD0779En3dFi18m6Pj-127">
          <mxGeometry width="50" height="50" relative="1" as="geometry">
            <mxPoint x="690" y="740" as="sourcePoint" />
            <mxPoint x="740" y="690" as="targetPoint" />
          </mxGeometry>
        </mxCell>
        <mxCell id="ZskD0779En3dFi18m6Pj-143" value="" style="endArrow=none;html=1;rounded=0;exitX=0.5;exitY=0;exitDx=0;exitDy=0;entryX=0.133;entryY=1.06;entryDx=0;entryDy=0;entryPerimeter=0;" edge="1" parent="1" source="ZskD0779En3dFi18m6Pj-137" target="ZskD0779En3dFi18m6Pj-127">
          <mxGeometry width="50" height="50" relative="1" as="geometry">
            <mxPoint x="700" y="750" as="sourcePoint" />
            <mxPoint x="750" y="700" as="targetPoint" />
          </mxGeometry>
        </mxCell>
        <mxCell id="ZskD0779En3dFi18m6Pj-144" value="" style="endArrow=none;html=1;rounded=0;entryX=0.35;entryY=1.12;entryDx=0;entryDy=0;entryPerimeter=0;exitX=0.5;exitY=0;exitDx=0;exitDy=0;" edge="1" parent="1" source="ZskD0779En3dFi18m6Pj-138" target="ZskD0779En3dFi18m6Pj-127">
          <mxGeometry width="50" height="50" relative="1" as="geometry">
            <mxPoint x="710" y="760" as="sourcePoint" />
            <mxPoint x="760" y="710" as="targetPoint" />
          </mxGeometry>
        </mxCell>
        <mxCell id="ZskD0779En3dFi18m6Pj-145" value="" style="endArrow=none;html=1;rounded=0;entryX=0.633;entryY=1.06;entryDx=0;entryDy=0;entryPerimeter=0;exitX=0.5;exitY=0;exitDx=0;exitDy=0;" edge="1" parent="1" source="ZskD0779En3dFi18m6Pj-139" target="ZskD0779En3dFi18m6Pj-127">
          <mxGeometry width="50" height="50" relative="1" as="geometry">
            <mxPoint x="720" y="770" as="sourcePoint" />
            <mxPoint x="770" y="720" as="targetPoint" />
          </mxGeometry>
        </mxCell>
        <mxCell id="ZskD0779En3dFi18m6Pj-146" value="" style="endArrow=none;html=1;rounded=0;entryX=0.75;entryY=1;entryDx=0;entryDy=0;exitX=0.5;exitY=0;exitDx=0;exitDy=0;" edge="1" parent="1" source="ZskD0779En3dFi18m6Pj-140" target="ZskD0779En3dFi18m6Pj-127">
          <mxGeometry width="50" height="50" relative="1" as="geometry">
            <mxPoint x="730" y="780" as="sourcePoint" />
            <mxPoint x="780" y="730" as="targetPoint" />
          </mxGeometry>
        </mxCell>
        <mxCell id="ZskD0779En3dFi18m6Pj-147" value="" style="endArrow=none;html=1;rounded=0;entryX=0.858;entryY=1.06;entryDx=0;entryDy=0;entryPerimeter=0;exitX=0;exitY=0;exitDx=0;exitDy=0;" edge="1" parent="1" source="ZskD0779En3dFi18m6Pj-141" target="ZskD0779En3dFi18m6Pj-127">
          <mxGeometry width="50" height="50" relative="1" as="geometry">
            <mxPoint x="740" y="790" as="sourcePoint" />
            <mxPoint x="790" y="740" as="targetPoint" />
          </mxGeometry>
        </mxCell>
        <mxCell id="ZskD0779En3dFi18m6Pj-148" value="" style="endArrow=none;html=1;rounded=0;entryX=1;entryY=0.75;entryDx=0;entryDy=0;exitX=0;exitY=0;exitDx=0;exitDy=0;" edge="1" parent="1" source="ZskD0779En3dFi18m6Pj-136" target="ZskD0779En3dFi18m6Pj-127">
          <mxGeometry width="50" height="50" relative="1" as="geometry">
            <mxPoint x="750" y="800" as="sourcePoint" />
            <mxPoint x="800" y="750" as="targetPoint" />
          </mxGeometry>
        </mxCell>
        <mxCell id="ZskD0779En3dFi18m6Pj-149" value="" style="endArrow=none;html=1;rounded=0;entryX=1;entryY=0.5;entryDx=0;entryDy=0;exitX=0;exitY=0;exitDx=0;exitDy=0;" edge="1" parent="1" source="ZskD0779En3dFi18m6Pj-134" target="ZskD0779En3dFi18m6Pj-127">
          <mxGeometry width="50" height="50" relative="1" as="geometry">
            <mxPoint x="760" y="810" as="sourcePoint" />
            <mxPoint x="810" y="760" as="targetPoint" />
          </mxGeometry>
        </mxCell>
        <mxCell id="ZskD0779En3dFi18m6Pj-164" value="" style="group" vertex="1" connectable="0" parent="1">
          <mxGeometry x="880" y="700" width="260" height="205" as="geometry" />
        </mxCell>
        <mxCell id="ZskD0779En3dFi18m6Pj-150" value="" style="group" vertex="1" connectable="0" parent="ZskD0779En3dFi18m6Pj-164">
          <mxGeometry x="10" width="120" height="60" as="geometry" />
        </mxCell>
        <mxCell id="ZskD0779En3dFi18m6Pj-151" value="" style="rounded=0;whiteSpace=wrap;html=1;" vertex="1" parent="ZskD0779En3dFi18m6Pj-150">
          <mxGeometry width="120" height="60" as="geometry" />
        </mxCell>
        <mxCell id="ZskD0779En3dFi18m6Pj-152" value="Movie Tag" style="rounded=0;whiteSpace=wrap;html=1;" vertex="1" parent="ZskD0779En3dFi18m6Pj-150">
          <mxGeometry x="10" y="8.75" width="100" height="41.25" as="geometry" />
        </mxCell>
        <mxCell id="ZskD0779En3dFi18m6Pj-153" value="&lt;u&gt;ID&lt;/u&gt;" style="ellipse;whiteSpace=wrap;html=1;" vertex="1" parent="ZskD0779En3dFi18m6Pj-164">
          <mxGeometry x="200" y="110" width="60" height="37.5" as="geometry" />
        </mxCell>
        <mxCell id="ZskD0779En3dFi18m6Pj-154" value="MovieID" style="ellipse;whiteSpace=wrap;html=1;" vertex="1" parent="ZskD0779En3dFi18m6Pj-164">
          <mxGeometry y="160" width="60" height="37.5" as="geometry" />
        </mxCell>
        <mxCell id="ZskD0779En3dFi18m6Pj-155" value="TagID" style="ellipse;whiteSpace=wrap;html=1;" vertex="1" parent="ZskD0779En3dFi18m6Pj-164">
          <mxGeometry x="95" y="140" width="60" height="35" as="geometry" />
        </mxCell>
        <mxCell id="ZskD0779En3dFi18m6Pj-158" value="" style="endArrow=none;html=1;rounded=0;entryX=0;entryY=0;entryDx=0;entryDy=0;exitX=1;exitY=1;exitDx=0;exitDy=0;" edge="1" parent="ZskD0779En3dFi18m6Pj-164" source="ZskD0779En3dFi18m6Pj-151" target="ZskD0779En3dFi18m6Pj-153">
          <mxGeometry width="50" height="50" relative="1" as="geometry">
            <mxPoint x="150" y="20" as="sourcePoint" />
            <mxPoint x="230" y="1" as="targetPoint" />
          </mxGeometry>
        </mxCell>
        <mxCell id="ZskD0779En3dFi18m6Pj-159" value="" style="endArrow=none;html=1;rounded=0;entryX=0.5;entryY=0;entryDx=0;entryDy=0;exitX=0.75;exitY=1;exitDx=0;exitDy=0;" edge="1" parent="ZskD0779En3dFi18m6Pj-164" source="ZskD0779En3dFi18m6Pj-151" target="ZskD0779En3dFi18m6Pj-155">
          <mxGeometry width="50" height="50" relative="1" as="geometry">
            <mxPoint x="160" y="30" as="sourcePoint" />
            <mxPoint x="240" y="11" as="targetPoint" />
          </mxGeometry>
        </mxCell>
        <mxCell id="ZskD0779En3dFi18m6Pj-160" value="" style="endArrow=none;html=1;rounded=0;entryX=0.5;entryY=0;entryDx=0;entryDy=0;exitX=0.333;exitY=1;exitDx=0;exitDy=0;exitPerimeter=0;" edge="1" parent="ZskD0779En3dFi18m6Pj-164" source="ZskD0779En3dFi18m6Pj-151" target="ZskD0779En3dFi18m6Pj-154">
          <mxGeometry width="50" height="50" relative="1" as="geometry">
            <mxPoint x="110" y="70" as="sourcePoint" />
            <mxPoint x="135" y="150" as="targetPoint" />
          </mxGeometry>
        </mxCell>
        <mxCell id="ZskD0779En3dFi18m6Pj-162" value="fk" style="text;html=1;align=center;verticalAlign=middle;resizable=0;points=[];autosize=1;strokeColor=none;fillColor=none;" vertex="1" parent="ZskD0779En3dFi18m6Pj-164">
          <mxGeometry x="155" y="147.5" width="30" height="30" as="geometry" />
        </mxCell>
        <mxCell id="ZskD0779En3dFi18m6Pj-163" value="fk" style="text;html=1;align=center;verticalAlign=middle;resizable=0;points=[];autosize=1;strokeColor=none;fillColor=none;" vertex="1" parent="ZskD0779En3dFi18m6Pj-164">
          <mxGeometry x="60" y="175" width="30" height="30" as="geometry" />
        </mxCell>
        <mxCell id="ZskD0779En3dFi18m6Pj-165" value="has" style="rhombus;whiteSpace=wrap;html=1;" vertex="1" parent="1">
          <mxGeometry x="620" y="690" width="80" height="80" as="geometry" />
        </mxCell>
        <mxCell id="ZskD0779En3dFi18m6Pj-166" value="" style="endArrow=none;html=1;rounded=0;entryX=0;entryY=0.5;entryDx=0;entryDy=0;exitX=1;exitY=0.5;exitDx=0;exitDy=0;" edge="1" parent="1" source="ZskD0779En3dFi18m6Pj-165" target="ZskD0779En3dFi18m6Pj-151">
          <mxGeometry width="50" height="50" relative="1" as="geometry">
            <mxPoint x="690" y="810" as="sourcePoint" />
            <mxPoint x="740" y="760" as="targetPoint" />
          </mxGeometry>
        </mxCell>
        <mxCell id="ZskD0779En3dFi18m6Pj-167" value="" style="endArrow=none;html=1;rounded=0;exitX=1;exitY=0.5;exitDx=0;exitDy=0;entryX=0;entryY=0.5;entryDx=0;entryDy=0;" edge="1" parent="1" source="ZskD0779En3dFi18m6Pj-127" target="ZskD0779En3dFi18m6Pj-165">
          <mxGeometry width="50" height="50" relative="1" as="geometry">
            <mxPoint x="690" y="810" as="sourcePoint" />
            <mxPoint x="610" y="730" as="targetPoint" />
          </mxGeometry>
        </mxCell>
        <mxCell id="ZskD0779En3dFi18m6Pj-168" value="N&lt;span style=&quot;color: rgba(0, 0, 0, 0); font-family: monospace; font-size: 0px; text-align: start;&quot;&gt;%3CmxGraphModel%3E%3Croot%3E%3CmxCell%20id%3D%220%22%2F%3E%3CmxCell%20id%3D%221%22%20parent%3D%220%22%2F%3E%3CmxCell%20id%3D%222%22%20value%3D%22shown%20in%22%20style%3D%22rhombus%3BwhiteSpace%3Dwrap%3Bhtml%3D1%3B%22%20vertex%3D%221%22%20parent%3D%221%22%3E%3CmxGeometry%20x%3D%22280%22%20y%3D%22555%22%20width%3D%2280%22%20height%3D%2280%22%20as%3D%22geometry%22%2F%3E%3C%2FmxCell%3E%3C%2Froot%3E%3C%2FmxGraphModel%3E&lt;/span&gt;" style="text;html=1;align=center;verticalAlign=middle;resizable=0;points=[];autosize=1;strokeColor=none;fillColor=none;" vertex="1" parent="1">
          <mxGeometry x="515" y="688" width="30" height="30" as="geometry" />
        </mxCell>
        <mxCell id="ZskD0779En3dFi18m6Pj-170" value="M" style="text;html=1;align=center;verticalAlign=middle;resizable=0;points=[];autosize=1;strokeColor=none;fillColor=none;" vertex="1" parent="1">
          <mxGeometry x="770" y="690" width="30" height="30" as="geometry" />
        </mxCell>
        <mxCell id="ZskD0779En3dFi18m6Pj-171" value="Reviews" style="rounded=0;whiteSpace=wrap;html=1;" vertex="1" parent="1">
          <mxGeometry x="-210" y="697.5" width="110" height="45" as="geometry" />
        </mxCell>
        <mxCell id="ZskD0779En3dFi18m6Pj-172" value="TimeStamp" style="ellipse;whiteSpace=wrap;html=1;" vertex="1" parent="1">
          <mxGeometry x="-220" y="597.5" width="60" height="37.5" as="geometry" />
        </mxCell>
        <mxCell id="ZskD0779En3dFi18m6Pj-173" value="Comment" style="ellipse;whiteSpace=wrap;html=1;" vertex="1" parent="1">
          <mxGeometry x="-250" y="821.25" width="60" height="37.5" as="geometry" />
        </mxCell>
        <mxCell id="ZskD0779En3dFi18m6Pj-174" value="Rating" style="ellipse;whiteSpace=wrap;html=1;" vertex="1" parent="1">
          <mxGeometry x="-65" y="610" width="60" height="37.5" as="geometry" />
        </mxCell>
        <mxCell id="ZskD0779En3dFi18m6Pj-175" value="MovieID" style="ellipse;whiteSpace=wrap;html=1;" vertex="1" parent="1">
          <mxGeometry x="-80" y="783.75" width="60" height="37.5" as="geometry" />
        </mxCell>
        <mxCell id="ZskD0779En3dFi18m6Pj-176" value="UsreID" style="ellipse;whiteSpace=wrap;html=1;" vertex="1" parent="1">
          <mxGeometry x="-160" y="821.25" width="60" height="37.5" as="geometry" />
        </mxCell>
        <mxCell id="ZskD0779En3dFi18m6Pj-177" value="&lt;u&gt;ID&lt;/u&gt;" style="ellipse;whiteSpace=wrap;html=1;" vertex="1" parent="1">
          <mxGeometry x="-140" y="597.5" width="60" height="37.5" as="geometry" />
        </mxCell>
        <mxCell id="ZskD0779En3dFi18m6Pj-178" value="has" style="rhombus;whiteSpace=wrap;html=1;" vertex="1" parent="1">
          <mxGeometry x="20" y="680" width="80" height="80" as="geometry" />
        </mxCell>
        <mxCell id="ZskD0779En3dFi18m6Pj-180" value="" style="endArrow=none;html=1;rounded=0;entryX=0;entryY=0.5;entryDx=0;entryDy=0;" edge="1" parent="1" source="ZskD0779En3dFi18m6Pj-178" target="ZskD0779En3dFi18m6Pj-127">
          <mxGeometry width="50" height="50" relative="1" as="geometry">
            <mxPoint x="-70" y="910" as="sourcePoint" />
            <mxPoint x="-20" y="860" as="targetPoint" />
          </mxGeometry>
        </mxCell>
        <mxCell id="ZskD0779En3dFi18m6Pj-182" value="" style="endArrow=none;html=1;rounded=0;entryX=0;entryY=0.5;entryDx=0;entryDy=0;exitX=1;exitY=0.5;exitDx=0;exitDy=0;" edge="1" parent="1" source="ZskD0779En3dFi18m6Pj-171" target="ZskD0779En3dFi18m6Pj-178">
          <mxGeometry width="50" height="50" relative="1" as="geometry">
            <mxPoint x="-70" y="910" as="sourcePoint" />
            <mxPoint x="-20" y="860" as="targetPoint" />
          </mxGeometry>
        </mxCell>
        <mxCell id="ZskD0779En3dFi18m6Pj-183" value="1" style="text;html=1;align=center;verticalAlign=middle;resizable=0;points=[];autosize=1;strokeColor=none;fillColor=none;" vertex="1" parent="1">
          <mxGeometry x="145" y="678" width="30" height="30" as="geometry" />
        </mxCell>
        <mxCell id="ZskD0779En3dFi18m6Pj-184" value="N" style="text;html=1;align=center;verticalAlign=middle;resizable=0;points=[];autosize=1;strokeColor=none;fillColor=none;" vertex="1" parent="1">
          <mxGeometry x="-65" y="688" width="30" height="30" as="geometry" />
        </mxCell>
        <mxCell id="ZskD0779En3dFi18m6Pj-186" value="" style="endArrow=none;html=1;rounded=0;entryX=0.5;entryY=1;entryDx=0;entryDy=0;" edge="1" parent="1" source="ZskD0779En3dFi18m6Pj-171" target="ZskD0779En3dFi18m6Pj-174">
          <mxGeometry width="50" height="50" relative="1" as="geometry">
            <mxPoint x="-70" y="660" as="sourcePoint" />
            <mxPoint x="-20" y="610" as="targetPoint" />
          </mxGeometry>
        </mxCell>
        <mxCell id="ZskD0779En3dFi18m6Pj-187" value="" style="endArrow=none;html=1;rounded=0;entryX=0.5;entryY=1;entryDx=0;entryDy=0;exitX=0.75;exitY=0;exitDx=0;exitDy=0;" edge="1" parent="1" source="ZskD0779En3dFi18m6Pj-171" target="ZskD0779En3dFi18m6Pj-177">
          <mxGeometry width="50" height="50" relative="1" as="geometry">
            <mxPoint x="-60" y="670" as="sourcePoint" />
            <mxPoint x="-10" y="620" as="targetPoint" />
          </mxGeometry>
        </mxCell>
        <mxCell id="ZskD0779En3dFi18m6Pj-188" value="" style="endArrow=none;html=1;rounded=0;exitX=0.5;exitY=1;exitDx=0;exitDy=0;entryX=0.25;entryY=0;entryDx=0;entryDy=0;" edge="1" parent="1" source="ZskD0779En3dFi18m6Pj-172" target="ZskD0779En3dFi18m6Pj-171">
          <mxGeometry width="50" height="50" relative="1" as="geometry">
            <mxPoint x="-50" y="680" as="sourcePoint" />
            <mxPoint y="630" as="targetPoint" />
          </mxGeometry>
        </mxCell>
        <mxCell id="ZskD0779En3dFi18m6Pj-189" value="" style="endArrow=none;html=1;rounded=0;entryX=0.75;entryY=1;entryDx=0;entryDy=0;exitX=0;exitY=0;exitDx=0;exitDy=0;" edge="1" parent="1" source="ZskD0779En3dFi18m6Pj-175" target="ZskD0779En3dFi18m6Pj-171">
          <mxGeometry width="50" height="50" relative="1" as="geometry">
            <mxPoint x="-310" y="810" as="sourcePoint" />
            <mxPoint x="-260" y="760" as="targetPoint" />
          </mxGeometry>
        </mxCell>
        <mxCell id="ZskD0779En3dFi18m6Pj-190" value="" style="endArrow=none;html=1;rounded=0;entryX=0.5;entryY=0;entryDx=0;entryDy=0;exitX=0.5;exitY=1;exitDx=0;exitDy=0;" edge="1" parent="1" source="ZskD0779En3dFi18m6Pj-171" target="ZskD0779En3dFi18m6Pj-176">
          <mxGeometry width="50" height="50" relative="1" as="geometry">
            <mxPoint x="-40" y="690" as="sourcePoint" />
            <mxPoint x="10" y="640" as="targetPoint" />
          </mxGeometry>
        </mxCell>
        <mxCell id="ZskD0779En3dFi18m6Pj-191" value="" style="endArrow=none;html=1;rounded=0;entryX=0;entryY=1;entryDx=0;entryDy=0;exitX=0.5;exitY=0;exitDx=0;exitDy=0;" edge="1" parent="1" source="ZskD0779En3dFi18m6Pj-173" target="ZskD0779En3dFi18m6Pj-171">
          <mxGeometry width="50" height="50" relative="1" as="geometry">
            <mxPoint x="-220" y="830" as="sourcePoint" />
            <mxPoint x="20" y="650" as="targetPoint" />
          </mxGeometry>
        </mxCell>
        <mxCell id="ZskD0779En3dFi18m6Pj-192" value="User" style="rounded=0;whiteSpace=wrap;html=1;" vertex="1" parent="1">
          <mxGeometry x="-630" y="695" width="110" height="50" as="geometry" />
        </mxCell>
        <mxCell id="ZskD0779En3dFi18m6Pj-193" value="&lt;u&gt;ID&lt;/u&gt;" style="ellipse;whiteSpace=wrap;html=1;" vertex="1" parent="1">
          <mxGeometry x="-660" y="597.5" width="60" height="37.5" as="geometry" />
        </mxCell>
        <mxCell id="ZskD0779En3dFi18m6Pj-194" value="Phone" style="ellipse;whiteSpace=wrap;html=1;" vertex="1" parent="1">
          <mxGeometry x="-485" y="800" width="60" height="37.5" as="geometry" />
        </mxCell>
        <mxCell id="ZskD0779En3dFi18m6Pj-195" value="Email" style="ellipse;whiteSpace=wrap;html=1;" vertex="1" parent="1">
          <mxGeometry x="-580" y="802.5" width="60" height="37.5" as="geometry" />
        </mxCell>
        <mxCell id="ZskD0779En3dFi18m6Pj-196" value="Name" style="ellipse;whiteSpace=wrap;html=1;" vertex="1" parent="1">
          <mxGeometry x="-560" y="592.5" width="60" height="37.5" as="geometry" />
        </mxCell>
        <mxCell id="ZskD0779En3dFi18m6Pj-197" value="Password" style="ellipse;whiteSpace=wrap;html=1;" vertex="1" parent="1">
          <mxGeometry x="-680" y="802.5" width="60" height="37.5" as="geometry" />
        </mxCell>
        <mxCell id="ZskD0779En3dFi18m6Pj-199" value="Gives" style="rhombus;whiteSpace=wrap;html=1;" vertex="1" parent="1">
          <mxGeometry x="-425" y="680" width="80" height="80" as="geometry" />
        </mxCell>
        <mxCell id="ZskD0779En3dFi18m6Pj-200" value="" style="endArrow=none;html=1;rounded=0;exitX=1;exitY=0.5;exitDx=0;exitDy=0;entryX=0;entryY=0.5;entryDx=0;entryDy=0;" edge="1" parent="1" source="ZskD0779En3dFi18m6Pj-192" target="ZskD0779En3dFi18m6Pj-199">
          <mxGeometry width="50" height="50" relative="1" as="geometry">
            <mxPoint x="-370" y="570" as="sourcePoint" />
            <mxPoint x="-320" y="520" as="targetPoint" />
          </mxGeometry>
        </mxCell>
        <mxCell id="ZskD0779En3dFi18m6Pj-202" value="" style="endArrow=none;html=1;rounded=0;entryX=0;entryY=0.5;entryDx=0;entryDy=0;exitX=1;exitY=0.5;exitDx=0;exitDy=0;" edge="1" parent="1" source="ZskD0779En3dFi18m6Pj-199" target="ZskD0779En3dFi18m6Pj-171">
          <mxGeometry width="50" height="50" relative="1" as="geometry">
            <mxPoint x="-370" y="570" as="sourcePoint" />
            <mxPoint x="-320" y="520" as="targetPoint" />
          </mxGeometry>
        </mxCell>
        <mxCell id="ZskD0779En3dFi18m6Pj-203" value="N" style="text;html=1;align=center;verticalAlign=middle;resizable=0;points=[];autosize=1;strokeColor=none;fillColor=none;" vertex="1" parent="1">
          <mxGeometry x="-495" y="688" width="30" height="30" as="geometry" />
        </mxCell>
        <mxCell id="ZskD0779En3dFi18m6Pj-204" value="1" style="text;html=1;align=center;verticalAlign=middle;resizable=0;points=[];autosize=1;strokeColor=none;fillColor=none;" vertex="1" parent="1">
          <mxGeometry x="-305" y="688" width="30" height="30" as="geometry" />
        </mxCell>
        <mxCell id="ZskD0779En3dFi18m6Pj-205" value="" style="endArrow=none;html=1;rounded=0;exitX=0.5;exitY=0;exitDx=0;exitDy=0;entryX=0;entryY=1;entryDx=0;entryDy=0;" edge="1" parent="1" source="ZskD0779En3dFi18m6Pj-197" target="ZskD0779En3dFi18m6Pj-192">
          <mxGeometry width="50" height="50" relative="1" as="geometry">
            <mxPoint x="-370" y="570" as="sourcePoint" />
            <mxPoint x="-320" y="520" as="targetPoint" />
          </mxGeometry>
        </mxCell>
        <mxCell id="ZskD0779En3dFi18m6Pj-207" value="" style="endArrow=none;html=1;rounded=0;exitX=0.5;exitY=0;exitDx=0;exitDy=0;entryX=0.5;entryY=1;entryDx=0;entryDy=0;" edge="1" parent="1" source="ZskD0779En3dFi18m6Pj-195" target="ZskD0779En3dFi18m6Pj-192">
          <mxGeometry width="50" height="50" relative="1" as="geometry">
            <mxPoint x="-370" y="570" as="sourcePoint" />
            <mxPoint x="-320" y="520" as="targetPoint" />
          </mxGeometry>
        </mxCell>
        <mxCell id="ZskD0779En3dFi18m6Pj-208" value="" style="endArrow=none;html=1;rounded=0;entryX=1;entryY=1;entryDx=0;entryDy=0;exitX=0.5;exitY=0;exitDx=0;exitDy=0;" edge="1" parent="1" source="ZskD0779En3dFi18m6Pj-194" target="ZskD0779En3dFi18m6Pj-192">
          <mxGeometry width="50" height="50" relative="1" as="geometry">
            <mxPoint x="-450" y="790" as="sourcePoint" />
            <mxPoint x="-310" y="530" as="targetPoint" />
          </mxGeometry>
        </mxCell>
        <mxCell id="ZskD0779En3dFi18m6Pj-209" value="" style="endArrow=none;html=1;rounded=0;entryX=0.5;entryY=1;entryDx=0;entryDy=0;exitX=0.25;exitY=0;exitDx=0;exitDy=0;" edge="1" parent="1" source="ZskD0779En3dFi18m6Pj-192" target="ZskD0779En3dFi18m6Pj-193">
          <mxGeometry width="50" height="50" relative="1" as="geometry">
            <mxPoint x="-350" y="590" as="sourcePoint" />
            <mxPoint x="-300" y="540" as="targetPoint" />
          </mxGeometry>
        </mxCell>
        <mxCell id="ZskD0779En3dFi18m6Pj-210" value="" style="endArrow=none;html=1;rounded=0;exitX=0.75;exitY=0;exitDx=0;exitDy=0;entryX=0.5;entryY=1;entryDx=0;entryDy=0;" edge="1" parent="1" source="ZskD0779En3dFi18m6Pj-192" target="ZskD0779En3dFi18m6Pj-196">
          <mxGeometry width="50" height="50" relative="1" as="geometry">
            <mxPoint x="-340" y="600" as="sourcePoint" />
            <mxPoint x="-290" y="550" as="targetPoint" />
          </mxGeometry>
        </mxCell>
        <mxCell id="ZskD0779En3dFi18m6Pj-211" value="fk" style="text;html=1;align=center;verticalAlign=middle;resizable=0;points=[];autosize=1;strokeColor=none;fillColor=none;" vertex="1" parent="1">
          <mxGeometry x="-45" y="828" width="30" height="30" as="geometry" />
        </mxCell>
        <mxCell id="ZskD0779En3dFi18m6Pj-212" value="fk" style="text;html=1;align=center;verticalAlign=middle;resizable=0;points=[];autosize=1;strokeColor=none;fillColor=none;" vertex="1" parent="1">
          <mxGeometry x="-135" y="858" width="30" height="30" as="geometry" />
        </mxCell>
        <mxCell id="ZskD0779En3dFi18m6Pj-251" value="&lt;u&gt;ID&lt;/u&gt;" style="ellipse;whiteSpace=wrap;html=1;container=0;" vertex="1" parent="1">
          <mxGeometry x="-920" y="470" width="60" height="37.5" as="geometry" />
        </mxCell>
        <mxCell id="ZskD0779En3dFi18m6Pj-252" value="UserID" style="ellipse;whiteSpace=wrap;html=1;container=0;" vertex="1" parent="1">
          <mxGeometry x="-1130" y="503.75" width="60" height="37.5" as="geometry" />
        </mxCell>
        <mxCell id="ZskD0779En3dFi18m6Pj-253" value="ShowID" style="ellipse;whiteSpace=wrap;html=1;container=0;" vertex="1" parent="1">
          <mxGeometry x="-1025" y="500" width="60" height="35" as="geometry" />
        </mxCell>
        <mxCell id="ZskD0779En3dFi18m6Pj-254" value="" style="endArrow=none;html=1;rounded=0;entryX=0;entryY=0;entryDx=0;entryDy=0;exitX=1;exitY=1;exitDx=0;exitDy=0;" edge="1" parent="1" source="ZskD0779En3dFi18m6Pj-249" target="ZskD0779En3dFi18m6Pj-251">
          <mxGeometry width="50" height="50" relative="1" as="geometry">
            <mxPoint x="-970" y="380" as="sourcePoint" />
            <mxPoint x="-890" y="361" as="targetPoint" />
          </mxGeometry>
        </mxCell>
        <mxCell id="ZskD0779En3dFi18m6Pj-255" value="" style="endArrow=none;html=1;rounded=0;entryX=0.5;entryY=0;entryDx=0;entryDy=0;exitX=0.75;exitY=1;exitDx=0;exitDy=0;" edge="1" parent="1" source="ZskD0779En3dFi18m6Pj-249" target="ZskD0779En3dFi18m6Pj-253">
          <mxGeometry width="50" height="50" relative="1" as="geometry">
            <mxPoint x="-960" y="390" as="sourcePoint" />
            <mxPoint x="-880" y="371" as="targetPoint" />
          </mxGeometry>
        </mxCell>
        <mxCell id="ZskD0779En3dFi18m6Pj-256" value="" style="endArrow=none;html=1;rounded=0;entryX=0.5;entryY=0;entryDx=0;entryDy=0;exitX=0.333;exitY=1;exitDx=0;exitDy=0;exitPerimeter=0;" edge="1" parent="1" source="ZskD0779En3dFi18m6Pj-249" target="ZskD0779En3dFi18m6Pj-252">
          <mxGeometry width="50" height="50" relative="1" as="geometry">
            <mxPoint x="-1010" y="430" as="sourcePoint" />
            <mxPoint x="-985" y="510" as="targetPoint" />
          </mxGeometry>
        </mxCell>
        <mxCell id="ZskD0779En3dFi18m6Pj-257" value="fk" style="text;html=1;align=center;verticalAlign=middle;resizable=0;points=[];autosize=1;strokeColor=none;fillColor=none;container=0;" vertex="1" parent="1">
          <mxGeometry x="-965" y="507.5" width="30" height="30" as="geometry" />
        </mxCell>
        <mxCell id="ZskD0779En3dFi18m6Pj-258" value="fk" style="text;html=1;align=center;verticalAlign=middle;resizable=0;points=[];autosize=1;strokeColor=none;fillColor=none;container=0;" vertex="1" parent="1">
          <mxGeometry x="-1060" y="535" width="30" height="30" as="geometry" />
        </mxCell>
        <mxCell id="ZskD0779En3dFi18m6Pj-273" value="" style="edgeStyle=orthogonalEdgeStyle;rounded=0;orthogonalLoop=1;jettySize=auto;html=1;" edge="1" parent="1" source="ZskD0779En3dFi18m6Pj-249" target="ZskD0779En3dFi18m6Pj-272">
          <mxGeometry relative="1" as="geometry" />
        </mxCell>
        <mxCell id="ZskD0779En3dFi18m6Pj-249" value="" style="rounded=0;whiteSpace=wrap;html=1;container=0;" vertex="1" parent="1">
          <mxGeometry x="-1110" y="360" width="120" height="60" as="geometry" />
        </mxCell>
        <mxCell id="ZskD0779En3dFi18m6Pj-250" value="Booking" style="rounded=0;whiteSpace=wrap;html=1;container=0;" vertex="1" parent="1">
          <mxGeometry x="-1100" y="368.75" width="100" height="41.25" as="geometry" />
        </mxCell>
        <mxCell id="ZskD0779En3dFi18m6Pj-263" value="Timestamp" style="ellipse;whiteSpace=wrap;html=1;container=0;" vertex="1" parent="1">
          <mxGeometry x="-880" y="385" width="60" height="35" as="geometry" />
        </mxCell>
        <mxCell id="ZskD0779En3dFi18m6Pj-264" value="status" style="ellipse;whiteSpace=wrap;html=1;container=0;" vertex="1" parent="1">
          <mxGeometry x="-880" y="316.25" width="60" height="35" as="geometry" />
        </mxCell>
        <mxCell id="ZskD0779En3dFi18m6Pj-266" value="NoSeats" style="ellipse;whiteSpace=wrap;html=1;container=0;" vertex="1" parent="1">
          <mxGeometry x="-1220" y="490" width="60" height="35" as="geometry" />
        </mxCell>
        <mxCell id="ZskD0779En3dFi18m6Pj-267" value="" style="endArrow=none;html=1;rounded=0;entryX=1;entryY=0.5;entryDx=0;entryDy=0;exitX=0;exitY=1;exitDx=0;exitDy=0;" edge="1" parent="1" source="ZskD0779En3dFi18m6Pj-263" target="ZskD0779En3dFi18m6Pj-249">
          <mxGeometry width="50" height="50" relative="1" as="geometry">
            <mxPoint x="-770" y="490" as="sourcePoint" />
            <mxPoint x="-720" y="440" as="targetPoint" />
          </mxGeometry>
        </mxCell>
        <mxCell id="ZskD0779En3dFi18m6Pj-269" value="" style="endArrow=none;html=1;rounded=0;entryX=0;entryY=0.5;entryDx=0;entryDy=0;exitX=1;exitY=0.25;exitDx=0;exitDy=0;" edge="1" parent="1" source="ZskD0779En3dFi18m6Pj-249" target="ZskD0779En3dFi18m6Pj-264">
          <mxGeometry width="50" height="50" relative="1" as="geometry">
            <mxPoint x="-770" y="490" as="sourcePoint" />
            <mxPoint x="-720" y="440" as="targetPoint" />
          </mxGeometry>
        </mxCell>
        <mxCell id="ZskD0779En3dFi18m6Pj-270" value="" style="endArrow=none;html=1;rounded=0;entryX=0;entryY=1;entryDx=0;entryDy=0;exitX=1;exitY=0;exitDx=0;exitDy=0;" edge="1" parent="1" source="ZskD0779En3dFi18m6Pj-266" target="ZskD0779En3dFi18m6Pj-249">
          <mxGeometry width="50" height="50" relative="1" as="geometry">
            <mxPoint x="-760" y="500" as="sourcePoint" />
            <mxPoint x="-710" y="450" as="targetPoint" />
          </mxGeometry>
        </mxCell>
        <mxCell id="ZskD0779En3dFi18m6Pj-271" style="edgeStyle=orthogonalEdgeStyle;rounded=0;orthogonalLoop=1;jettySize=auto;html=1;exitX=0.5;exitY=1;exitDx=0;exitDy=0;" edge="1" parent="1" source="ZskD0779En3dFi18m6Pj-266" target="ZskD0779En3dFi18m6Pj-266">
          <mxGeometry relative="1" as="geometry" />
        </mxCell>
        <mxCell id="ZskD0779En3dFi18m6Pj-272" value="Books" style="rhombus;whiteSpace=wrap;html=1;rounded=0;" vertex="1" parent="1">
          <mxGeometry x="-1460" y="675" width="80" height="80" as="geometry" />
        </mxCell>
        <mxCell id="ZskD0779En3dFi18m6Pj-274" value="" style="endArrow=none;html=1;rounded=0;entryX=0;entryY=0.5;entryDx=0;entryDy=0;exitX=1;exitY=0.5;exitDx=0;exitDy=0;" edge="1" parent="1" source="ZskD0779En3dFi18m6Pj-272" target="ZskD0779En3dFi18m6Pj-192">
          <mxGeometry width="50" height="50" relative="1" as="geometry">
            <mxPoint x="-890" y="490" as="sourcePoint" />
            <mxPoint x="-840" y="440" as="targetPoint" />
          </mxGeometry>
        </mxCell>
        <mxCell id="ZskD0779En3dFi18m6Pj-275" value="1" style="text;html=1;align=center;verticalAlign=middle;resizable=0;points=[];autosize=1;strokeColor=none;fillColor=none;" vertex="1" parent="1">
          <mxGeometry x="-1220" y="670" width="30" height="30" as="geometry" />
        </mxCell>
        <mxCell id="ZskD0779En3dFi18m6Pj-277" value="1" style="text;html=1;align=center;verticalAlign=middle;resizable=0;points=[];autosize=1;strokeColor=none;fillColor=none;" vertex="1" parent="1">
          <mxGeometry x="-1455" y="588" width="30" height="30" as="geometry" />
        </mxCell>
        <mxCell id="ZskD0779En3dFi18m6Pj-281" value="has many" style="rhombus;whiteSpace=wrap;html=1;" vertex="1" parent="1">
          <mxGeometry x="-220" y="108" width="80" height="80" as="geometry" />
        </mxCell>
        <mxCell id="ZskD0779En3dFi18m6Pj-282" value="" style="endArrow=none;html=1;rounded=0;entryX=0;entryY=0.5;entryDx=0;entryDy=0;exitX=0.5;exitY=0;exitDx=0;exitDy=0;" edge="1" parent="1" source="ZskD0779En3dFi18m6Pj-249" target="ZskD0779En3dFi18m6Pj-281">
          <mxGeometry width="50" height="50" relative="1" as="geometry">
            <mxPoint x="-1010" y="160" as="sourcePoint" />
            <mxPoint x="-210" y="280" as="targetPoint" />
          </mxGeometry>
        </mxCell>
        <mxCell id="ZskD0779En3dFi18m6Pj-283" value="1" style="text;html=1;align=center;verticalAlign=middle;resizable=0;points=[];autosize=1;strokeColor=none;fillColor=none;" vertex="1" parent="1">
          <mxGeometry x="-285" y="118" width="30" height="30" as="geometry" />
        </mxCell>
        <mxCell id="ZskD0779En3dFi18m6Pj-284" value="" style="endArrow=none;html=1;rounded=0;entryX=0;entryY=0;entryDx=0;entryDy=0;exitX=1;exitY=0.5;exitDx=0;exitDy=0;" edge="1" parent="1" source="ZskD0779En3dFi18m6Pj-281" target="ZskD0779En3dFi18m6Pj-65">
          <mxGeometry width="50" height="50" relative="1" as="geometry">
            <mxPoint x="360" y="330" as="sourcePoint" />
            <mxPoint x="410" y="280" as="targetPoint" />
            <Array as="points">
              <mxPoint x="410" y="180" />
            </Array>
          </mxGeometry>
        </mxCell>
        <mxCell id="ZskD0779En3dFi18m6Pj-285" value="N" style="text;html=1;align=center;verticalAlign=middle;resizable=0;points=[];autosize=1;strokeColor=none;fillColor=none;" vertex="1" parent="1">
          <mxGeometry x="-115" y="108" width="30" height="30" as="geometry" />
        </mxCell>
        <mxCell id="ZskD0779En3dFi18m6Pj-286" value="" style="group" vertex="1" connectable="0" parent="1">
          <mxGeometry x="30" y="-90" width="180" height="120" as="geometry" />
        </mxCell>
        <mxCell id="ZskD0779En3dFi18m6Pj-1" value="City" style="rounded=0;whiteSpace=wrap;html=1;" vertex="1" parent="ZskD0779En3dFi18m6Pj-286">
          <mxGeometry x="80" y="90" width="90" height="30" as="geometry" />
        </mxCell>
        <mxCell id="ZskD0779En3dFi18m6Pj-2" value="State" style="ellipse;whiteSpace=wrap;html=1;" vertex="1" parent="ZskD0779En3dFi18m6Pj-286">
          <mxGeometry x="120" y="10" width="60" height="40" as="geometry" />
        </mxCell>
        <mxCell id="ZskD0779En3dFi18m6Pj-3" value="Name" style="ellipse;whiteSpace=wrap;html=1;" vertex="1" parent="ZskD0779En3dFi18m6Pj-286">
          <mxGeometry y="10" width="60" height="40" as="geometry" />
        </mxCell>
        <mxCell id="ZskD0779En3dFi18m6Pj-8" value="" style="endArrow=none;html=1;rounded=0;entryX=0.707;entryY=0.95;entryDx=0;entryDy=0;entryPerimeter=0;exitX=0;exitY=0;exitDx=0;exitDy=0;" edge="1" parent="ZskD0779En3dFi18m6Pj-286" source="ZskD0779En3dFi18m6Pj-1" target="ZskD0779En3dFi18m6Pj-3">
          <mxGeometry width="50" height="50" relative="1" as="geometry">
            <mxPoint x="370" y="120" as="sourcePoint" />
            <mxPoint x="420" y="70" as="targetPoint" />
          </mxGeometry>
        </mxCell>
        <mxCell id="ZskD0779En3dFi18m6Pj-9" value="" style="endArrow=none;html=1;rounded=0;entryX=0.393;entryY=1.05;entryDx=0;entryDy=0;entryPerimeter=0;exitX=0.5;exitY=0;exitDx=0;exitDy=0;" edge="1" parent="ZskD0779En3dFi18m6Pj-286" source="ZskD0779En3dFi18m6Pj-1" target="ZskD0779En3dFi18m6Pj-2">
          <mxGeometry width="50" height="50" relative="1" as="geometry">
            <mxPoint x="370" y="120" as="sourcePoint" />
            <mxPoint x="420" y="70" as="targetPoint" />
          </mxGeometry>
        </mxCell>
        <mxCell id="ZskD0779En3dFi18m6Pj-10" value="" style="endArrow=none;html=1;rounded=0;entryX=0;entryY=1;entryDx=0;entryDy=0;exitX=1;exitY=0;exitDx=0;exitDy=0;" edge="1" parent="ZskD0779En3dFi18m6Pj-286" source="ZskD0779En3dFi18m6Pj-1" target="ZskD0779En3dFi18m6Pj-6">
          <mxGeometry width="50" height="50" relative="1" as="geometry">
            <mxPoint x="370" y="120" as="sourcePoint" />
            <mxPoint x="420" y="70" as="targetPoint" />
          </mxGeometry>
        </mxCell>
        <mxCell id="ZskD0779En3dFi18m6Pj-18" value="&lt;u&gt;id&lt;/u&gt;" style="ellipse;whiteSpace=wrap;html=1;" vertex="1" parent="ZskD0779En3dFi18m6Pj-286">
          <mxGeometry x="70" width="40" height="30" as="geometry" />
        </mxCell>
        <mxCell id="ZskD0779En3dFi18m6Pj-20" value="" style="endArrow=none;html=1;rounded=0;entryX=0.5;entryY=1;entryDx=0;entryDy=0;exitX=0.25;exitY=0;exitDx=0;exitDy=0;" edge="1" parent="ZskD0779En3dFi18m6Pj-286" source="ZskD0779En3dFi18m6Pj-1" target="ZskD0779En3dFi18m6Pj-18">
          <mxGeometry width="50" height="50" relative="1" as="geometry">
            <mxPoint x="370" y="120" as="sourcePoint" />
            <mxPoint x="420" y="70" as="targetPoint" />
          </mxGeometry>
        </mxCell>
        <mxCell id="ZskD0779En3dFi18m6Pj-287" value="Payment" style="rounded=0;whiteSpace=wrap;html=1;" vertex="1" parent="1">
          <mxGeometry x="-1105" y="118" width="90" height="30" as="geometry" />
        </mxCell>
        <mxCell id="ZskD0779En3dFi18m6Pj-288" value="&lt;u&gt;ID&lt;/u&gt;" style="ellipse;whiteSpace=wrap;html=1;" vertex="1" parent="1">
          <mxGeometry x="-1185" y="38" width="60" height="40" as="geometry" />
        </mxCell>
        <mxCell id="ZskD0779En3dFi18m6Pj-289" value="" style="endArrow=none;html=1;rounded=0;entryX=0.707;entryY=0.95;entryDx=0;entryDy=0;entryPerimeter=0;exitX=0;exitY=0;exitDx=0;exitDy=0;" edge="1" parent="1" source="ZskD0779En3dFi18m6Pj-287" target="ZskD0779En3dFi18m6Pj-288">
          <mxGeometry width="50" height="50" relative="1" as="geometry">
            <mxPoint x="-815" y="148" as="sourcePoint" />
            <mxPoint x="-765" y="98" as="targetPoint" />
          </mxGeometry>
        </mxCell>
        <mxCell id="ZskD0779En3dFi18m6Pj-291" value="amnt" style="ellipse;whiteSpace=wrap;html=1;" vertex="1" parent="1">
          <mxGeometry x="-1115" y="28" width="40" height="30" as="geometry" />
        </mxCell>
        <mxCell id="ZskD0779En3dFi18m6Pj-292" value="" style="endArrow=none;html=1;rounded=0;entryX=0.5;entryY=1;entryDx=0;entryDy=0;exitX=0.25;exitY=0;exitDx=0;exitDy=0;" edge="1" parent="1" source="ZskD0779En3dFi18m6Pj-287" target="ZskD0779En3dFi18m6Pj-291">
          <mxGeometry width="50" height="50" relative="1" as="geometry">
            <mxPoint x="-815" y="148" as="sourcePoint" />
            <mxPoint x="-765" y="98" as="targetPoint" />
          </mxGeometry>
        </mxCell>
        <mxCell id="ZskD0779En3dFi18m6Pj-301" value="Timestamp" style="ellipse;whiteSpace=wrap;html=1;" vertex="1" parent="1">
          <mxGeometry x="-1060" y="18" width="60" height="40" as="geometry" />
        </mxCell>
        <mxCell id="ZskD0779En3dFi18m6Pj-302" value="Payment&lt;div&gt;Method&lt;/div&gt;" style="ellipse;whiteSpace=wrap;html=1;" vertex="1" parent="1">
          <mxGeometry x="-920" y="140" width="60" height="40" as="geometry" />
        </mxCell>
        <mxCell id="ZskD0779En3dFi18m6Pj-303" value="BookindID" style="ellipse;whiteSpace=wrap;html=1;" vertex="1" parent="1">
          <mxGeometry x="-1220" y="98" width="60" height="40" as="geometry" />
        </mxCell>
        <mxCell id="ZskD0779En3dFi18m6Pj-304" value="Remote&lt;br&gt;transactiondID" style="ellipse;whiteSpace=wrap;html=1;" vertex="1" parent="1">
          <mxGeometry x="-910" y="82.5" width="90" height="48.75" as="geometry" />
        </mxCell>
        <mxCell id="ZskD0779En3dFi18m6Pj-305" value="DiscountID" style="ellipse;whiteSpace=wrap;html=1;" vertex="1" parent="1">
          <mxGeometry x="-980" y="33" width="60" height="40" as="geometry" />
        </mxCell>
        <mxCell id="ZskD0779En3dFi18m6Pj-307" value="" style="endArrow=none;html=1;rounded=0;entryX=0;entryY=1;entryDx=0;entryDy=0;exitX=0.5;exitY=0;exitDx=0;exitDy=0;" edge="1" parent="1" source="ZskD0779En3dFi18m6Pj-287" target="ZskD0779En3dFi18m6Pj-301">
          <mxGeometry width="50" height="50" relative="1" as="geometry">
            <mxPoint x="-580" y="210" as="sourcePoint" />
            <mxPoint x="-530" y="160" as="targetPoint" />
          </mxGeometry>
        </mxCell>
        <mxCell id="ZskD0779En3dFi18m6Pj-308" value="" style="endArrow=none;html=1;rounded=0;entryX=0;entryY=1;entryDx=0;entryDy=0;exitX=0.75;exitY=0;exitDx=0;exitDy=0;" edge="1" parent="1" source="ZskD0779En3dFi18m6Pj-287" target="ZskD0779En3dFi18m6Pj-305">
          <mxGeometry width="50" height="50" relative="1" as="geometry">
            <mxPoint x="-580" y="210" as="sourcePoint" />
            <mxPoint x="-530" y="160" as="targetPoint" />
          </mxGeometry>
        </mxCell>
        <mxCell id="ZskD0779En3dFi18m6Pj-309" value="" style="endArrow=none;html=1;rounded=0;entryX=0;entryY=0.5;entryDx=0;entryDy=0;exitX=1;exitY=0.25;exitDx=0;exitDy=0;" edge="1" parent="1" source="ZskD0779En3dFi18m6Pj-287" target="ZskD0779En3dFi18m6Pj-304">
          <mxGeometry width="50" height="50" relative="1" as="geometry">
            <mxPoint x="-580" y="210" as="sourcePoint" />
            <mxPoint x="-530" y="160" as="targetPoint" />
          </mxGeometry>
        </mxCell>
        <mxCell id="ZskD0779En3dFi18m6Pj-310" value="" style="endArrow=none;html=1;rounded=0;entryX=1;entryY=0.5;entryDx=0;entryDy=0;" edge="1" parent="1" target="ZskD0779En3dFi18m6Pj-303">
          <mxGeometry width="50" height="50" relative="1" as="geometry">
            <mxPoint x="-1100" y="140" as="sourcePoint" />
            <mxPoint x="-530" y="160" as="targetPoint" />
          </mxGeometry>
        </mxCell>
        <mxCell id="ZskD0779En3dFi18m6Pj-311" value="" style="endArrow=none;html=1;rounded=0;entryX=1;entryY=0.75;entryDx=0;entryDy=0;exitX=0;exitY=0;exitDx=0;exitDy=0;" edge="1" parent="1" source="ZskD0779En3dFi18m6Pj-302" target="ZskD0779En3dFi18m6Pj-287">
          <mxGeometry width="50" height="50" relative="1" as="geometry">
            <mxPoint x="-580" y="210" as="sourcePoint" />
            <mxPoint x="-530" y="160" as="targetPoint" />
          </mxGeometry>
        </mxCell>
        <mxCell id="ZskD0779En3dFi18m6Pj-312" value="has a" style="rhombus;whiteSpace=wrap;html=1;" vertex="1" parent="1">
          <mxGeometry x="-1100" y="208" width="80" height="80" as="geometry" />
        </mxCell>
        <mxCell id="ZskD0779En3dFi18m6Pj-313" value="" style="endArrow=none;html=1;rounded=0;exitX=0.5;exitY=0;exitDx=0;exitDy=0;" edge="1" parent="1" source="ZskD0779En3dFi18m6Pj-312" target="ZskD0779En3dFi18m6Pj-287">
          <mxGeometry width="50" height="50" relative="1" as="geometry">
            <mxPoint x="-580" y="210" as="sourcePoint" />
            <mxPoint x="-530" y="160" as="targetPoint" />
          </mxGeometry>
        </mxCell>
        <mxCell id="ZskD0779En3dFi18m6Pj-314" value="" style="endArrow=none;html=1;rounded=0;entryX=0.5;entryY=1;entryDx=0;entryDy=0;" edge="1" parent="1" source="ZskD0779En3dFi18m6Pj-250" target="ZskD0779En3dFi18m6Pj-312">
          <mxGeometry width="50" height="50" relative="1" as="geometry">
            <mxPoint x="-580" y="210" as="sourcePoint" />
            <mxPoint x="-530" y="160" as="targetPoint" />
          </mxGeometry>
        </mxCell>
        <mxCell id="ZskD0779En3dFi18m6Pj-315" value="1" style="text;html=1;align=center;verticalAlign=middle;resizable=0;points=[];autosize=1;strokeColor=none;fillColor=none;" vertex="1" parent="1">
          <mxGeometry x="-1065" y="168" width="30" height="30" as="geometry" />
        </mxCell>
        <mxCell id="ZskD0779En3dFi18m6Pj-316" value="1" style="text;html=1;align=center;verticalAlign=middle;resizable=0;points=[];autosize=1;strokeColor=none;fillColor=none;" vertex="1" parent="1">
          <mxGeometry x="-1065" y="308" width="30" height="30" as="geometry" />
        </mxCell>
        <mxCell id="ZskD0779En3dFi18m6Pj-348" value="fk" style="text;html=1;align=center;verticalAlign=middle;resizable=0;points=[];autosize=1;strokeColor=none;fillColor=none;" vertex="1" parent="1">
          <mxGeometry x="-865" y="48" width="30" height="30" as="geometry" />
        </mxCell>
        <mxCell id="ZskD0779En3dFi18m6Pj-349" value="fk" style="text;html=1;align=center;verticalAlign=middle;resizable=0;points=[];autosize=1;strokeColor=none;fillColor=none;" vertex="1" parent="1">
          <mxGeometry x="-945" y="8" width="30" height="30" as="geometry" />
        </mxCell>
        <mxCell id="ZskD0779En3dFi18m6Pj-350" value="fk" style="text;html=1;align=center;verticalAlign=middle;resizable=0;points=[];autosize=1;strokeColor=none;fillColor=none;" vertex="1" parent="1">
          <mxGeometry x="-1255" y="88" width="30" height="30" as="geometry" />
        </mxCell>
        <mxCell id="ZskD0779En3dFi18m6Pj-351" value="Refund" style="rounded=0;whiteSpace=wrap;html=1;" vertex="1" parent="1">
          <mxGeometry x="-1530" y="203" width="100" height="37" as="geometry" />
        </mxCell>
        <mxCell id="ZskD0779En3dFi18m6Pj-352" value="&lt;u&gt;ID&lt;/u&gt;" style="ellipse;whiteSpace=wrap;html=1;" vertex="1" parent="1">
          <mxGeometry x="-1580" y="131.25" width="60" height="40" as="geometry" />
        </mxCell>
        <mxCell id="ZskD0779En3dFi18m6Pj-353" value="BookindID" style="ellipse;whiteSpace=wrap;html=1;" vertex="1" parent="1">
          <mxGeometry x="-1500" y="113" width="60" height="40" as="geometry" />
        </mxCell>
        <mxCell id="ZskD0779En3dFi18m6Pj-354" value="AMNT" style="ellipse;whiteSpace=wrap;html=1;" vertex="1" parent="1">
          <mxGeometry x="-1410" y="128" width="60" height="40" as="geometry" />
        </mxCell>
        <mxCell id="ZskD0779En3dFi18m6Pj-355" value="Reason" style="ellipse;whiteSpace=wrap;html=1;" vertex="1" parent="1">
          <mxGeometry x="-1340" y="178" width="60" height="40" as="geometry" />
        </mxCell>
        <mxCell id="ZskD0779En3dFi18m6Pj-356" value="TImestamp" style="ellipse;whiteSpace=wrap;html=1;" vertex="1" parent="1">
          <mxGeometry x="-1670" y="189.25" width="60" height="40" as="geometry" />
        </mxCell>
        <mxCell id="ZskD0779En3dFi18m6Pj-357" value="has a" style="rhombus;whiteSpace=wrap;html=1;rotation=15;" vertex="1" parent="1">
          <mxGeometry x="-1320" y="263" width="80" height="80" as="geometry" />
        </mxCell>
        <mxCell id="ZskD0779En3dFi18m6Pj-359" value="" style="endArrow=none;html=1;rounded=0;exitX=1;exitY=0.5;exitDx=0;exitDy=0;entryX=0;entryY=0;entryDx=0;entryDy=0;" edge="1" parent="1" source="ZskD0779En3dFi18m6Pj-357" target="ZskD0779En3dFi18m6Pj-249">
          <mxGeometry width="50" height="50" relative="1" as="geometry">
            <mxPoint x="-1100" y="290" as="sourcePoint" />
            <mxPoint x="-1050" y="240" as="targetPoint" />
          </mxGeometry>
        </mxCell>
        <mxCell id="ZskD0779En3dFi18m6Pj-361" value="" style="endArrow=none;html=1;rounded=0;exitX=1;exitY=1;exitDx=0;exitDy=0;entryX=0;entryY=0.5;entryDx=0;entryDy=0;" edge="1" parent="1" source="ZskD0779En3dFi18m6Pj-351" target="ZskD0779En3dFi18m6Pj-357">
          <mxGeometry width="50" height="50" relative="1" as="geometry">
            <mxPoint x="-1100" y="290" as="sourcePoint" />
            <mxPoint x="-1050" y="240" as="targetPoint" />
          </mxGeometry>
        </mxCell>
        <mxCell id="ZskD0779En3dFi18m6Pj-362" value="1" style="text;html=1;align=center;verticalAlign=middle;resizable=0;points=[];autosize=1;strokeColor=none;fillColor=none;" vertex="1" parent="1">
          <mxGeometry x="-1365" y="248" width="30" height="30" as="geometry" />
        </mxCell>
        <mxCell id="ZskD0779En3dFi18m6Pj-363" value="1" style="text;html=1;align=center;verticalAlign=middle;resizable=0;points=[];autosize=1;strokeColor=none;fillColor=none;" vertex="1" parent="1">
          <mxGeometry x="-1205" y="298" width="30" height="30" as="geometry" />
        </mxCell>
        <mxCell id="ZskD0779En3dFi18m6Pj-364" value="" style="endArrow=none;html=1;rounded=0;entryX=0;entryY=0.5;entryDx=0;entryDy=0;" edge="1" parent="1" source="ZskD0779En3dFi18m6Pj-351" target="ZskD0779En3dFi18m6Pj-355">
          <mxGeometry width="50" height="50" relative="1" as="geometry">
            <mxPoint x="-1100" y="290" as="sourcePoint" />
            <mxPoint x="-1050" y="240" as="targetPoint" />
          </mxGeometry>
        </mxCell>
        <mxCell id="ZskD0779En3dFi18m6Pj-368" value="" style="endArrow=none;html=1;rounded=0;entryX=0;entryY=1;entryDx=0;entryDy=0;exitX=1;exitY=0;exitDx=0;exitDy=0;" edge="1" parent="1" source="ZskD0779En3dFi18m6Pj-351" target="ZskD0779En3dFi18m6Pj-354">
          <mxGeometry width="50" height="50" relative="1" as="geometry">
            <mxPoint x="-1100" y="290" as="sourcePoint" />
            <mxPoint x="-1050" y="240" as="targetPoint" />
          </mxGeometry>
        </mxCell>
        <mxCell id="ZskD0779En3dFi18m6Pj-372" value="" style="endArrow=none;html=1;rounded=0;entryX=0.386;entryY=1.031;entryDx=0;entryDy=0;entryPerimeter=0;exitX=0.5;exitY=0;exitDx=0;exitDy=0;" edge="1" parent="1" source="ZskD0779En3dFi18m6Pj-351" target="ZskD0779En3dFi18m6Pj-353">
          <mxGeometry width="50" height="50" relative="1" as="geometry">
            <mxPoint x="-1100" y="290" as="sourcePoint" />
            <mxPoint x="-1050" y="240" as="targetPoint" />
          </mxGeometry>
        </mxCell>
        <mxCell id="ZskD0779En3dFi18m6Pj-374" value="" style="endArrow=none;html=1;rounded=0;exitX=1;exitY=0.5;exitDx=0;exitDy=0;entryX=0;entryY=0.25;entryDx=0;entryDy=0;" edge="1" parent="1" source="ZskD0779En3dFi18m6Pj-356" target="ZskD0779En3dFi18m6Pj-351">
          <mxGeometry width="50" height="50" relative="1" as="geometry">
            <mxPoint x="-1100" y="290" as="sourcePoint" />
            <mxPoint x="-1050" y="240" as="targetPoint" />
          </mxGeometry>
        </mxCell>
        <mxCell id="ZskD0779En3dFi18m6Pj-376" value="" style="endArrow=none;html=1;rounded=0;entryX=0.5;entryY=1;entryDx=0;entryDy=0;exitX=0.155;exitY=-0.046;exitDx=0;exitDy=0;exitPerimeter=0;" edge="1" parent="1" source="ZskD0779En3dFi18m6Pj-351" target="ZskD0779En3dFi18m6Pj-352">
          <mxGeometry width="50" height="50" relative="1" as="geometry">
            <mxPoint x="-1100" y="290" as="sourcePoint" />
            <mxPoint x="-1050" y="240" as="targetPoint" />
          </mxGeometry>
        </mxCell>
      </root>
    </mxGraphModel>
  </diagram>
</mxfile>
